<?xml version="1.0" standalone="no"?>
<!DOCTYPE svg PUBLIC "-//W3C//DTD SVG 20010904//EN"
 "http://www.w3.org/TR/2001/REC-SVG-20010904/DTD/svg10.dtd">
<svg version="1.0" xmlns="http://www.w3.org/2000/svg"
 width="1920.000000pt" height="1078.000000pt" viewBox="0 0 1920.000000 1078.000000"
 preserveAspectRatio="xMidYMid meet">
<metadata>
Created by potrace 1.15, written by Peter Selinger 2001-2017
</metadata>
<g transform="translate(0.000000,1078.000000) scale(0.100000,-0.100000)"
fill="#000000" stroke="none">
<path d="M0 5390 l0 -5390 4140 0 c4121 0 4141 0 4182 20 23 11 48 20 55 20 7
0 13 5 13 10 0 6 7 10 15 10 8 0 31 9 52 21 62 35 73 33 73 -9 0 -30 -6 -41
-27 -54 -27 -17 -13 -17 307 -17 272 0 338 2 353 14 17 13 15 15 -33 29 -76
23 -96 46 -72 84 10 15 52 25 52 11 0 -5 9 -9 20 -9 10 0 34 -6 52 -14 30 -14
80 -27 93 -26 3 0 13 -7 22 -16 15 -15 18 -15 28 0 7 9 18 16 25 16 10 0 83
34 172 81 34 18 48 11 48 -24 0 -29 -5 -36 -42 -55 -24 -11 -56 -26 -73 -33
l-30 -12 35 -8 c19 -5 44 -15 55 -22 14 -8 101 -13 303 -15 l282 -3 1 108 c1
59 0 122 -1 140 -2 36 31 76 55 67 11 -4 15 -21 15 -56 0 -39 3 -48 12 -41 16
12 80 16 93 6 25 -20 35 -58 35 -138 l0 -85 34 0 c39 0 41 6 45 121 3 112 7
122 46 116 18 -3 37 -1 42 4 6 6 30 9 54 7 43 -3 44 -4 47 -40 3 -37 3 -38
-27 -32 -73 15 -101 -19 -101 -122 l0 -54 93 0 c50 0 88 4 82 8 -57 42 -42
186 25 233 40 28 103 30 132 5 31 -26 48 -74 37 -103 -9 -25 -29 -31 -104 -35
-58 -3 -72 -26 -32 -53 23 -15 28 -15 62 -1 59 25 69 22 62 -19 l-6 -35 1394
0 c1229 0 1394 2 1399 15 3 8 17 15 31 15 16 0 25 -6 25 -15 0 -13 26 -15 183
-14 100 1 174 3 165 6 -48 12 1 63 60 63 41 0 42 -1 42 -35 l0 -36 193 5 c105
2 214 7 240 11 32 5 53 3 60 -4 6 -6 37 -11 69 -11 56 0 58 1 58 26 0 17 -6
28 -20 31 -22 6 -27 35 -7 51 6 5 31 13 55 17 l42 7 0 -66 0 -66 56 0 c50 0
59 4 85 31 22 24 35 30 61 27 28 -2 34 -8 36 -30 3 -25 7 -28 41 -28 30 0 42
6 59 29 14 20 38 34 68 43 43 12 48 17 58 53 9 30 17 41 35 43 22 4 22 2 19
-82 -3 -77 -1 -86 15 -86 9 0 17 6 17 14 0 23 65 73 104 80 47 9 83 -14 92
-60 5 -27 11 -34 30 -34 18 0 25 7 29 27 11 53 29 76 60 79 17 2 46 6 66 9 26
5 39 2 48 -9 21 -25 6 -45 -44 -57 -26 -6 -50 -20 -56 -30 -9 -18 -3 -19 166
-19 l175 0 0 28 c2 133 19 205 48 200 13 -2 18 -16 22 -53 3 -31 8 -45 13 -37
12 17 72 15 88 -4 7 -9 15 -42 17 -75 l4 -59 34 0 c34 0 34 1 34 44 0 36 -4
46 -20 51 -29 9 -24 40 10 65 16 12 30 27 30 34 0 18 21 35 36 29 8 -3 14 -16
14 -29 0 -21 5 -24 36 -24 31 0 35 -3 32 -22 -2 -12 -16 -29 -33 -38 -20 -11
-32 -27 -36 -50 -10 -50 -3 -60 46 -60 47 0 55 11 55 82 0 64 17 86 69 93 25
3 62 8 81 11 57 7 64 -3 62 -100 l-1 -86 38 0 c38 0 38 0 45 46 3 26 6 75 6
110 0 54 -3 64 -20 69 -43 14 -17 55 40 62 l43 6 -5 -130 c-3 -72 -2 -137 3
-144 6 -10 42 -15 141 -17 l133 -3 11 29 c7 18 30 42 55 58 l44 27 -38 17
c-56 25 -62 34 -47 70 12 28 16 30 44 24 30 -6 114 -37 146 -53 48 -25 0 -87
-105 -137 l-70 -33 131 -1 130 0 3 98 c1 53 4 104 7 113 4 16 -16 41 -32 38
-42 -7 -57 19 -31 54 9 13 36 20 112 26 55 5 102 7 104 5 12 -11 -14 -53 -44
-70 -19 -10 -35 -19 -36 -19 -1 0 -4 -49 -8 -109 -6 -90 -10 -111 -26 -122
-17 -12 -8 -14 71 -14 84 1 87 2 62 15 -21 12 -28 25 -33 59 -12 78 18 150 77
186 63 38 118 14 133 -57 11 -52 -44 -93 -112 -84 -14 2 -16 -9 -7 -33 8 -20
27 -20 65 0 17 8 33 13 36 10 13 -13 -11 -58 -40 -76 -32 -20 -32 -20 746 -20
l777 0 0 80 c0 44 -1 80 -2 80 -2 0 -21 -7 -43 -15 -101 -36 -158 -4 -96 54
25 23 31 37 31 70 0 28 -5 44 -15 47 -20 8 -19 58 1 75 8 7 24 30 35 51 11 22
25 37 32 35 11 -4 12 -15 6 -57 -1 -8 -1 -59 -1 -112 2 -97 2 -98 27 -98 l25
0 0 230 0 231 -29 -21 c-22 -17 -38 -21 -77 -17 l-49 4 3 124 c4 135 13 189
38 210 19 16 34 -2 34 -43 0 -26 3 -28 40 -26 l40 1 0 1525 c0 839 -2 1523 -4
1521 -2 -2 -32 -65 -66 -138 -63 -139 -85 -168 -108 -149 -18 16 -15 25 94
256 37 78 68 131 74 127 6 -4 10 25 10 84 l0 91 -34 0 c-49 0 -61 21 -61 105
0 65 -3 75 -25 93 -21 17 -23 23 -13 45 7 14 20 28 30 31 10 3 24 20 30 37 14
35 35 35 43 -1 3 -13 11 -25 18 -28 9 -3 12 88 12 408 0 389 -1 412 -17 405
-10 -4 -30 -10 -45 -13 -25 -4 -28 -1 -28 24 0 37 8 47 48 68 36 18 41 33 15
43 -48 17 -64 53 -43 93 9 17 13 17 38 5 l27 -15 3 136 c2 110 0 138 -13 150
-8 9 -18 27 -21 41 -9 36 11 216 25 221 8 3 11 626 11 2358 l0 2354 -8842 0
-8842 0 -26 -25 c-14 -13 -74 -42 -133 -65 -174 -65 -250 -51 -277 50 l-11 40
-153 0 -152 0 -34 -75 c-44 -98 -64 -117 -126 -117 -27 0 -50 5 -52 11 -2 6
-8 11 -14 11 -6 0 -34 15 -62 33 -28 18 -77 41 -109 51 -32 9 -88 33 -124 52
-61 31 -73 34 -154 34 l-89 0 0 -5390z m2269 5032 c45 -21 58 -56 65 -187 7
-138 7 -136 20 -132 16 5 45 97 46 143 0 62 25 79 114 79 65 0 79 -4 125 -32
53 -34 81 -41 81 -23 0 19 65 50 106 50 54 0 101 -17 143 -51 l34 -28 33 33
c29 29 40 33 93 35 45 1 72 -4 103 -20 38 -19 58 -22 183 -21 77 0 145 1 152
1 7 1 17 20 24 44 6 23 18 50 26 60 19 20 70 22 108 5 19 -9 28 -9 37 0 20 20
56 13 90 -17 28 -24 32 -36 36 -90 2 -34 8 -64 13 -67 5 -3 20 8 34 24 38 45
93 64 156 52 28 -5 63 -19 79 -30 29 -21 60 -27 60 -11 0 5 19 16 41 25 55 22
117 13 169 -25 48 -35 54 -36 67 -6 10 21 20 25 82 30 80 7 124 -3 157 -34 23
-22 44 -19 44 6 0 7 9 17 20 20 11 3 32 22 46 41 34 44 58 43 103 -5 20 -21
46 -42 58 -46 12 -3 31 -17 42 -31 l19 -24 30 30 c27 27 37 30 89 30 77 0 128
-29 159 -90 19 -37 24 -62 25 -140 0 -54 4 -84 8 -70 4 15 19 31 38 39 46 20
59 84 24 115 -51 46 -49 116 4 136 17 6 25 17 25 33 0 31 27 67 51 67 11 0 30
-11 42 -24 21 -23 23 -35 25 -168 2 -121 5 -145 19 -156 27 -19 36 0 39 84 4
91 19 141 42 147 9 3 52 4 96 3 l78 -1 38 -43 37 -44 22 29 c32 40 59 52 114
53 62 0 101 -21 133 -72 34 -54 36 -114 5 -140 -21 -16 -21 -19 -7 -40 9 -12
16 -35 16 -50 0 -43 -38 -62 -122 -61 -67 1 -94 11 -131 47 -14 15 -18 14 -41
-9 -30 -30 -56 -32 -87 -6 -20 16 -24 30 -29 101 -3 54 -9 85 -17 88 -12 3
-14 -14 -17 -140 -2 -52 -20 -59 -175 -65 -152 -5 -181 -2 -205 22 -14 14 -19
14 -44 1 -15 -8 -64 -17 -109 -21 -72 -7 -87 -5 -126 14 -42 20 -46 21 -83 5
-45 -19 -112 -14 -150 11 -32 21 -50 64 -57 135 -13 129 -37 120 -37 -13 0
-98 -1 -104 -22 -115 -40 -19 -52 -20 -80 -4 -34 20 -48 51 -49 115 -2 48 -2
47 -10 -23 -12 -100 -39 -120 -121 -85 -32 13 -39 12 -74 -5 -52 -27 -138 -27
-182 0 l-34 21 -59 -21 c-75 -25 -108 -25 -169 1 -67 29 -98 78 -108 170 l-7
71 -60 0 c-145 0 -163 -2 -185 -20 -20 -16 -21 -21 -11 -41 20 -37 5 -76 -37
-95 -29 -13 -61 -16 -157 -13 -100 3 -123 0 -135 -13 -53 -55 -166 -77 -233
-45 -21 9 -37 21 -37 26 0 14 -24 11 -72 -11 -53 -23 -153 -29 -188 -10 -17 9
-43 10 -94 5 -74 -9 -106 -9 -271 -2 -155 6 -170 11 -214 71 -36 48 -38 55
-40 130 -1 44 -4 83 -7 87 -2 4 0 9 6 11 6 2 3 18 -9 40 -24 48 -31 77 -20 83
4 3 6 12 2 20 -8 24 5 63 25 68 25 8 82 -2 121 -21z m-1746 -57 c43 -18 77
-59 77 -93 0 -15 -12 -37 -30 -54 -16 -15 -30 -31 -30 -34 0 -3 11 -20 24 -37
38 -50 43 -84 16 -112 -20 -22 -28 -23 -97 -19 -103 6 -252 59 -296 105 -9 10
-17 29 -17 43 0 14 -5 28 -10 31 -14 9 -8 46 13 78 19 30 58 50 162 83 83 27
139 29 188 9z m1522 -48 c23 -13 47 -37 57 -57 19 -39 22 -51 11 -48 -5 1 -21
-4 -36 -10 -16 -7 -32 -12 -37 -12 -5 0 -28 -7 -50 -16 -30 -12 -40 -22 -40
-39 0 -29 15 -41 65 -50 53 -9 85 -40 85 -80 0 -28 -6 -34 -41 -50 -43 -20
-127 -23 -172 -6 -44 17 -89 63 -114 119 -21 49 -22 58 -12 116 14 81 52 130
117 151 57 18 113 12 167 -18z m4575 -36 l29 -29 16 24 c23 36 70 33 90 -6 8
-16 15 -42 15 -59 0 -16 5 -33 10 -36 6 -3 10 -2 10 4 0 18 41 23 73 8 18 -8
71 -33 119 -55 74 -34 90 -46 105 -76 23 -50 6 -80 -61 -105 -28 -10 -81 -30
-117 -44 -58 -22 -69 -23 -96 -12 -16 7 -32 22 -35 33 -9 33 20 80 58 92 42
14 43 24 5 40 -16 6 -37 20 -46 30 -15 16 -19 17 -43 4 -34 -18 -52 -18 -79 1
-18 12 -25 13 -46 2 -15 -8 -54 -12 -98 -11 -41 2 -86 -2 -100 -7 -30 -12 -39
-44 -39 -142 0 -51 -3 -59 -24 -68 -39 -18 -73 -4 -86 36 -16 49 -6 249 14
280 15 23 20 24 120 22 l105 -2 6 35 c7 39 31 70 52 70 8 0 28 -13 43 -29z
m-3129 -547 c36 -32 41 -53 44 -181 3 -121 11 -153 34 -139 16 10 41 103 41
151 0 53 22 74 86 81 64 8 126 -10 169 -48 l35 -30 32 31 c40 39 63 45 136 38
50 -5 61 -10 92 -45 l36 -40 35 39 c34 38 38 39 100 39 48 0 73 -5 99 -22 32
-20 46 -21 185 -19 83 2 152 4 154 6 2 2 7 25 12 50 5 25 15 53 23 61 18 18
65 18 90 -1 16 -12 22 -12 47 0 39 21 56 19 84 -10 22 -21 25 -33 25 -103 0
-96 -7 -103 -87 -101 -110 2 -140 -2 -158 -21 -17 -18 -17 -22 -1 -55 16 -34
16 -36 -4 -57 -20 -22 -30 -23 -162 -25 l-141 -2 -32 -31 c-25 -24 -47 -34
-98 -43 -58 -9 -70 -9 -107 8 -22 10 -44 24 -48 32 -6 10 -17 8 -52 -9 -60
-30 -170 -37 -205 -14 -16 10 -34 14 -46 11 -62 -20 -216 -30 -233 -16 -11 9
-40 11 -105 6 -87 -7 -90 -7 -128 20 -22 16 -45 40 -52 54 -8 14 -17 80 -20
146 -5 85 -12 129 -25 152 -23 43 -18 94 11 109 31 15 107 2 134 -22z m2571
-77 c10 -12 18 -17 18 -10 0 19 30 43 54 43 32 0 54 -28 62 -78 7 -47 7 -47
33 -30 15 9 38 2 131 -38 121 -52 155 -77 166 -119 10 -40 -24 -67 -145 -114
-117 -46 -127 -47 -159 -25 -42 29 -23 96 34 120 32 13 46 34 23 34 -5 0 -26
11 -46 25 -27 18 -41 22 -54 15 -25 -14 -49 -12 -81 4 -17 9 -28 10 -30 4 -2
-5 -25 -12 -50 -15 -47 -6 -47 -6 -63 -58 -8 -29 -15 -59 -15 -67 0 -7 -6 -31
-14 -52 -17 -48 -46 -62 -96 -46 -26 9 -43 9 -64 0 -37 -14 -78 1 -96 36 -14
26 -30 32 -30 12 -1 -20 -43 -46 -89 -57 -113 -25 -200 50 -201 172 0 42 -3
49 -26 58 -20 7 -32 6 -50 -6 -21 -14 -24 -24 -26 -88 -2 -113 -4 -117 -56
-117 -69 0 -82 26 -82 165 0 100 15 174 37 176 4 0 46 3 93 5 73 3 89 1 112
-16 34 -25 40 -25 80 0 44 26 84 25 142 -4 47 -24 48 -24 67 -5 10 10 22 19
27 19 18 0 55 -35 66 -62 12 -27 18 -30 62 -32 49 -3 50 -3 66 36 12 27 27 43
48 51 16 6 30 18 30 27 0 8 9 29 20 47 18 30 21 31 52 22 18 -5 41 -19 50 -32z
m-4289 22 c75 -39 90 -103 35 -149 l-32 -27 32 -39 c34 -41 43 -93 20 -111 -7
-6 -45 -11 -84 -12 -61 -2 -84 3 -165 35 -118 47 -159 82 -159 139 0 72 31 97
180 146 92 31 139 35 173 18z m1464 -30 c46 -17 73 -49 73 -85 0 -27 -5 -34
-31 -43 -18 -6 -43 -11 -56 -11 -43 0 -63 -18 -63 -55 0 -37 12 -45 69 -43 26
1 40 -6 58 -27 58 -66 0 -120 -122 -112 -38 3 -71 10 -73 16 -2 6 -9 11 -16
11 -7 0 -22 10 -33 23 -71 79 -73 215 -4 287 43 46 134 64 198 39z m1431 -572
c29 -23 36 -56 37 -185 1 -77 6 -137 12 -143 15 -15 53 6 53 29 0 9 6 28 13
42 7 14 12 40 9 59 -2 19 -1 44 2 56 8 32 62 55 116 49 76 -7 89 -13 130 -55
l39 -40 15 29 c22 43 58 62 116 62 61 0 105 -20 124 -58 17 -32 5 -62 -23 -62
-31 0 -29 -10 5 -44 30 -30 34 -40 34 -88 0 -57 -9 -72 -58 -98 -42 -21 -123
-20 -170 2 -36 17 -45 18 -58 7 -15 -12 -90 -15 -269 -9 -22 1 -62 1 -89 0
-52 -2 -83 14 -119 61 -15 21 -19 47 -22 141 -3 105 -6 121 -30 162 -30 51
-27 82 8 96 27 10 107 2 125 -13z m1378 -41 l21 -23 9 21 c7 16 18 21 49 21
50 0 65 -25 65 -112 0 -65 -20 -103 -55 -103 -21 0 -65 22 -65 32 0 5 -7 2
-16 -6 -16 -17 -24 -19 -64 -17 -16 1 -31 -8 -42 -23 -16 -22 -16 -27 -3 -54
34 -67 -8 -85 -181 -81 -107 3 -128 2 -132 -11 -21 -63 -169 -91 -239 -45 -39
26 -22 115 23 115 6 0 -2 14 -18 32 -27 29 -30 37 -25 82 3 40 11 55 36 78 27
25 39 28 96 28 57 0 68 -3 99 -30 22 -19 37 -27 41 -20 4 7 56 10 148 9 l142
-1 6 58 c10 85 53 106 105 50z m914 -8 c18 -20 20 -35 20 -169 l0 -148 27 -3
c14 -2 35 -15 46 -30 20 -27 20 -28 2 -48 -22 -25 -100 -28 -133 -4 -39 27
-47 55 -52 189 -5 122 -6 131 -27 140 -26 11 -35 39 -23 71 8 21 16 24 64 24
44 0 59 -5 76 -22z m913 -18 c10 -15 12 -58 9 -202 -2 -101 -8 -187 -12 -192
-13 -13 -133 -23 -168 -14 -17 5 -39 19 -49 32 l-18 23 -10 -21 c-13 -26 -72
-35 -81 -12 -5 14 -8 14 -21 1 -23 -24 -72 -19 -83 8 -6 15 -9 17 -9 6 -2 -33
-74 -40 -91 -10 -5 11 -10 37 -10 59 0 23 -5 42 -12 44 -7 2 -60 5 -118 7
-116 3 -140 11 -140 46 0 54 3 55 139 55 l126 0 15 48 15 47 105 1 c113 2 132
-5 152 -55 l9 -24 28 33 c24 29 36 35 82 40 50 5 54 7 60 36 3 18 9 39 12 48
9 22 53 20 70 -4z m-4850 -28 c38 -36 37 -83 -2 -111 -16 -12 -35 -21 -43 -21
-7 0 4 -16 25 -35 50 -46 63 -80 41 -113 -15 -23 -20 -24 -88 -20 -80 6 -205
50 -261 93 -31 23 -35 32 -35 70 0 52 26 86 80 105 19 7 71 25 114 41 91 32
126 30 169 -9z m5379 4 c4 -6 8 -26 8 -45 l0 -34 -45 6 c-34 3 -51 0 -66 -12
-21 -17 -20 -17 20 -18 69 -1 111 -55 111 -142 0 -84 -30 -132 -93 -146 -71
-17 -137 24 -159 96 l-11 39 -123 0 c-98 0 -126 3 -138 16 -20 19 -20 44 -2
69 12 17 24 18 140 11 l126 -6 0 28 c0 38 47 130 73 144 52 27 140 24 159 -6z
m1010 15 c4 -1 9 -74 10 -163 l3 -163 33 -3 c23 -2 36 -10 44 -27 17 -39 -5
-57 -65 -53 -41 2 -54 8 -71 31 -19 26 -21 40 -18 157 l2 129 -27 13 c-30 14
-42 50 -24 72 8 10 56 13 113 7z m521 -10 c15 -1 17 -15 17 -161 l0 -159 35
-7 c56 -10 71 -65 22 -78 -43 -11 -71 -6 -99 21 l-28 27 0 137 0 137 -30 11
c-22 7 -30 16 -30 33 0 34 18 47 59 43 20 -2 44 -4 54 -4z m-5469 -31 c14 -14
28 -37 31 -51 5 -21 1 -27 -20 -37 -14 -7 -43 -12 -64 -12 -54 0 -73 -17 -69
-65 l3 -40 50 -1 c59 0 70 -6 89 -43 13 -25 13 -30 -7 -55 -19 -23 -32 -28
-84 -33 -80 -7 -136 18 -176 79 -56 86 -27 230 55 272 24 12 52 16 101 13 56
-2 71 -7 91 -27z m6321 -24 c20 -20 25 -35 25 -74 0 -26 -5 -53 -12 -60 -9 -9
-8 -21 2 -51 15 -45 8 -125 -13 -145 -53 -53 -156 -48 -194 10 -21 32 -20 115
1 146 12 17 12 25 0 55 -22 52 3 123 51 144 36 16 113 2 140 -25z m-4335 9
c15 -8 34 -27 41 -43 l13 -29 36 38 c34 36 42 39 89 39 107 0 151 -55 151
-190 0 -47 -4 -80 -10 -80 -5 0 -10 -5 -10 -11 0 -26 -76 -69 -122 -69 -40 0
-105 39 -122 73 -15 31 -16 31 -16 6 0 -44 -38 -69 -107 -70 -71 -2 -107 15
-143 69 -21 29 -25 47 -24 103 1 78 22 122 74 156 39 27 106 31 150 8z m2491
-45 c14 -8 19 -21 19 -51 l0 -40 -54 6 c-47 6 -56 4 -75 -16 -28 -30 -27 -71
3 -105 22 -27 25 -27 65 -16 51 16 61 10 61 -32 0 -39 -28 -56 -91 -56 -86 0
-139 57 -139 148 0 110 49 172 138 172 29 0 62 -5 73 -10z m253 -19 c15 -16
32 -46 37 -67 10 -44 1 -164 -12 -164 -5 0 -9 -5 -9 -11 0 -18 -38 -47 -71
-54 -88 -20 -164 63 -153 167 9 74 13 87 45 123 28 32 36 35 83 35 45 0 56 -4
80 -29z m1018 -2 c3 -9 10 -8 25 2 18 11 24 11 38 -1 14 -12 15 -31 9 -159 -4
-80 -13 -160 -20 -177 -18 -43 -54 -64 -109 -64 -62 0 -85 14 -85 50 0 23 5
31 26 36 14 4 30 2 37 -5 16 -16 42 -14 57 4 11 13 7 15 -27 15 -21 0 -49 7
-61 16 -66 46 -70 199 -5 266 21 22 36 28 69 28 23 0 44 -5 46 -11z m1093 -89
c24 -13 31 -24 33 -53 3 -32 0 -38 -23 -47 -14 -5 -51 -21 -81 -35 -30 -14
-58 -25 -63 -25 -5 0 -21 -7 -37 -15 -31 -16 -54 -6 -54 25 0 36 12 48 71 70
55 21 77 40 46 40 -19 0 -101 40 -109 54 -12 18 -9 43 7 60 14 13 24 11 98
-22 45 -20 96 -43 112 -52z m524 19 c-5 -10 -19 -21 -31 -24 -48 -14 -118 -49
-115 -58 1 -4 34 -21 72 -38 69 -29 91 -47 76 -62 -8 -8 -29 -1 -116 39 -27
12 -62 27 -77 33 -53 20 -20 73 50 84 11 2 26 8 34 13 18 14 81 39 91 36 4 -1
7 4 7 11 0 8 3 8 9 -2 6 -9 6 -22 0 -32z m-2051 -48 c2 -20 -2 -37 -10 -42
-18 -12 -191 -11 -222 1 -26 9 -32 31 -20 64 5 14 24 16 128 14 l121 -3 3 -34z
m786 5 c2 -10 0 -29 -5 -43 l-9 -25 -110 6 c-61 3 -115 8 -120 11 -14 9 -13
48 2 63 8 8 48 11 124 9 101 -2 113 -4 118 -21z m2388 -242 c4 6 8 7 8 1 0 -6
90 -10 251 -10 138 0 253 -3 255 -6 2 -4 15 -4 29 -1 14 2 25 0 25 -6 0 -8
-122 -17 -175 -13 -5 1 -120 2 -255 4 -135 1 -244 5 -242 10 1 4 2 11 2 15 0
5 21 6 48 2 31 -5 49 -4 54 4z m-7401 -93 c22 -17 23 -26 26 -162 2 -79 5
-150 8 -156 2 -7 14 -13 25 -13 18 0 20 6 20 60 0 120 42 173 145 182 24 3 31
9 40 38 14 50 23 60 50 60 33 0 65 -48 65 -99 l0 -41 129 0 c71 0 136 -3 145
-6 13 -5 16 3 16 48 0 96 53 130 104 66 19 -24 26 -28 26 -16 0 10 11 25 25
34 56 37 102 -28 92 -129 -8 -71 -53 -99 -102 -64 -15 12 -23 12 -46 0 -16 -8
-39 -13 -51 -12 -13 2 -33 -5 -45 -16 -20 -17 -21 -21 -7 -46 38 -74 0 -93
-174 -87 -101 3 -112 1 -112 -14 0 -34 -35 -56 -103 -63 -72 -8 -120 -1 -142
22 -8 8 -15 10 -15 5 0 -13 -34 -20 -125 -26 -102 -7 -147 3 -163 37 -16 34
-6 51 45 72 28 12 33 19 33 49 0 42 -18 86 -36 86 -14 0 -24 22 -24 56 0 17 9
30 30 42 18 11 32 28 36 47 7 34 31 65 49 65 7 0 23 -8 36 -19z m1889 -37 c11
-28 13 -117 4 -151 -8 -30 -66 -32 -91 -3 -16 19 -18 17 -46 -58 -16 -42 -32
-86 -37 -97 -5 -11 -14 -35 -22 -52 -13 -32 -29 -39 -78 -34 -28 4 -47 39 -85
155 -33 99 -37 119 -27 141 10 22 18 26 44 23 28 -3 34 -9 51 -53 42 -111 36
-107 62 -38 12 35 28 70 35 78 16 19 54 19 70 0 18 -21 28 -4 28 47 1 49 16
68 53 68 22 0 32 -6 39 -26z m120 7 c5 -11 12 -48 14 -83 4 -48 1 -67 -11 -80
-18 -21 -63 -24 -81 -6 -15 15 -16 142 -2 169 14 26 66 26 80 0z m1046 -28 c4
-20 5 -88 2 -152 -3 -64 -3 -122 -1 -128 3 -7 17 -13 32 -13 33 0 51 -16 51
-47 0 -50 -82 -59 -132 -14 l-33 29 2 136 1 136 -24 6 c-31 8 -44 32 -33 62 7
19 15 22 68 22 l60 0 7 -37z m1868 8 c4 -1 5 -20 2 -43 -3 -24 -6 -50 -5 -58
0 -8 -1 -63 -1 -122 l-2 -106 36 3 c35 3 36 2 36 -31 l0 -34 -110 0 -110 0 0
29 c0 30 14 41 56 41 28 0 37 24 32 96 -3 46 -5 49 -33 54 -40 7 -48 52 -13
71 13 7 24 12 26 11 1 -1 8 -2 15 -2 9 0 12 11 9 35 -5 40 10 65 36 60 9 -2
21 -4 26 -4z m1029 -10 c11 -1 8 -69 -4 -76 -6 -4 -7 -14 -3 -24 4 -9 6 -62 5
-118 l-3 -103 29 -1 c15 -1 31 -1 36 0 4 0 7 -15 7 -34 l0 -36 -107 3 c-105 3
-108 4 -111 27 -4 27 12 41 49 41 31 0 39 19 39 98 0 49 -2 52 -25 52 -27 0
-48 30 -39 54 6 17 9 18 47 20 19 1 22 6 19 33 -4 41 13 72 35 68 10 -2 21 -4
26 -4z m-7299 -36 c21 -19 27 -33 24 -58 -2 -27 -10 -36 -48 -55 -25 -12 -46
-26 -47 -30 -1 -4 17 -16 40 -28 33 -16 44 -28 51 -57 13 -50 -3 -67 -65 -67
-61 0 -232 62 -271 98 -32 29 -37 75 -13 109 12 18 103 59 235 106 34 12 68 6
94 -18z m7004 -22 c3 -30 6 -32 45 -35 35 -3 43 -7 45 -26 5 -33 -15 -52 -54
-52 l-34 0 0 -69 c0 -72 6 -81 50 -81 25 0 41 -30 29 -53 -15 -26 -96 -23
-126 5 -21 19 -23 30 -23 109 l0 88 -27 3 c-25 3 -28 7 -28 38 0 31 3 35 28
38 16 2 27 9 27 18 0 58 63 74 68 17z m-4491 1 c30 -19 53 -76 53 -128 l0 -41
20 31 c17 27 19 36 9 57 -16 35 -5 71 26 85 41 19 125 15 163 -8 55 -34 65
-70 56 -196 l-9 -109 -77 -9 c-98 -11 -143 -2 -164 30 l-17 25 -11 -23 c-8
-16 -22 -24 -46 -26 -49 -5 -60 16 -60 112 0 87 -9 112 -34 103 -13 -5 -16
-23 -16 -97 0 -102 -9 -120 -59 -120 -20 0 -34 7 -41 21 -16 29 -9 271 7 291
18 21 169 23 200 2z m1431 -16 c6 -6 12 -21 12 -34 0 -12 5 -26 10 -29 6 -3
10 -1 10 6 0 7 12 26 27 41 23 24 34 28 84 28 47 0 60 -4 83 -26 14 -15 31
-45 37 -66 11 -44 3 -168 -12 -168 -5 0 -9 -6 -9 -13 0 -22 -56 -47 -104 -47
-38 0 -52 6 -83 33 -34 32 -36 37 -41 109 -4 75 -5 76 -35 82 -83 17 -96 3
-105 -116 l-7 -93 -35 0 -35 0 -3 133 c-3 155 4 177 51 169 18 -2 40 -2 50 2
24 9 88 2 105 -11z m769 -19 c14 -13 29 -33 33 -44 7 -17 9 -17 9 -3 1 29 32
36 150 32 120 -3 131 -7 131 -51 0 -36 -32 -45 -155 -41 l-113 3 -15 -27 c-15
-27 -20 -28 -92 -28 -59 0 -75 -3 -75 -15 0 -8 12 -21 28 -29 23 -11 34 -11
72 0 50 15 60 9 60 -37 0 -33 -41 -52 -111 -53 -56 -1 -95 23 -121 75 -37 72
-10 190 53 228 43 26 112 21 146 -10z m674 6 c10 -3 20 -2 24 4 9 16 67 13 92
-4 30 -21 41 -86 34 -195 l-6 -95 -30 0 -30 0 -5 105 c-5 104 -5 105 -31 108
-35 4 -41 -12 -48 -123 l-6 -90 -30 0 -30 0 -3 115 c-2 63 2 132 8 152 11 37
19 40 61 23z m379 -8 c39 -32 51 -116 34 -241 -7 -46 -7 -47 -43 -46 -20 1
-57 -2 -83 -6 -45 -6 -50 -4 -78 26 -69 74 -16 181 93 186 40 2 44 5 22 13
-11 4 -37 4 -59 -1 -47 -11 -66 -5 -66 19 0 40 28 62 83 65 61 4 77 1 97 -15z
m138 -14 c6 -15 12 -35 12 -44 0 -10 4 -20 9 -23 4 -3 11 -24 15 -46 7 -44 26
-55 26 -16 0 14 4 27 8 30 4 3 14 28 22 56 15 54 38 75 70 65 21 -7 27 -39 10
-50 -5 -3 -10 -15 -10 -26 0 -19 -4 -28 -28 -76 -7 -13 -12 -30 -12 -38 0 -8
-4 -23 -9 -33 -5 -9 -14 -29 -22 -44 -10 -23 -19 -28 -49 -28 -34 0 -36 2 -50
48 -7 26 -24 79 -36 117 -24 71 -30 116 -17 128 16 16 49 5 61 -20z m608 14
c3 -3 16 -2 28 3 46 17 50 3 43 -157 -6 -167 -18 -204 -72 -230 -25 -12 -44
-14 -81 -7 -45 8 -49 11 -52 41 -4 38 21 50 62 32 23 -11 30 -10 48 8 l21 21
-40 -5 c-34 -4 -45 -1 -74 25 -30 27 -33 36 -37 95 -5 83 1 108 38 150 25 29
35 34 70 32 22 -1 43 -5 46 -8z m297 -10 c34 -37 38 -58 31 -165 -3 -59 -8
-110 -11 -114 -2 -4 -23 -8 -46 -8 -23 -1 -59 -2 -79 -2 -57 -2 -88 31 -88 95
0 42 4 53 31 78 25 23 40 29 75 29 24 0 44 4 44 10 0 16 -43 22 -74 11 -46
-18 -56 -14 -56 24 0 22 6 38 18 44 25 15 141 14 155 -2z m774 -24 c55 -68 35
-226 -33 -258 -50 -23 -89 -19 -126 14 -31 27 -33 34 -36 108 -3 69 -1 82 20
113 30 44 62 60 112 55 29 -3 47 -12 63 -32z m252 10 c13 -14 16 -39 16 -142
l0 -126 -30 0 -30 0 4 86 c4 116 -16 153 -61 112 -14 -13 -18 -31 -18 -87 0
-100 -6 -118 -39 -114 l-26 3 2 129 c1 71 4 134 7 141 7 20 154 18 175 -2z
m356 7 c3 -5 15 -10 26 -10 10 0 19 -4 19 -10 0 -5 8 -10 18 -11 9 0 40 -13
67 -28 47 -25 50 -29 50 -66 l0 -40 -100 -42 c-110 -46 -133 -50 -141 -28 -15
37 5 62 66 85 33 12 57 26 54 31 -3 5 -9 9 -15 9 -23 0 -99 44 -104 61 -13 39
40 82 60 49z m-3181 -106 c11 -4 16 -19 16 -44 l0 -39 -116 -3 c-63 -2 -124 0
-135 4 -22 8 -26 57 -7 76 13 13 212 17 242 6z m-3856 -454 c13 -13 22 -33 22
-51 0 -27 -6 -33 -62 -58 l-63 -29 46 -20 c83 -36 103 -93 43 -118 -34 -14
-40 -13 -152 26 -134 46 -168 73 -158 123 9 45 18 52 129 95 156 62 162 63
195 32z m688 -16 c155 -63 173 -76 174 -129 0 -37 -15 -47 -145 -98 -123 -48
-195 -54 -195 -14 0 25 55 97 74 97 7 0 21 6 32 14 18 14 16 16 -27 34 -47 21
-59 36 -59 77 0 25 24 55 44 55 7 0 52 -16 102 -36z m6158 -483 c5 0 6 -61 3
-145 -7 -154 -6 -161 43 -168 20 -2 25 -9 25 -33 0 -26 -4 -30 -36 -36 -88
-14 -104 16 -101 184 3 117 1 127 -16 127 -21 0 -42 18 -42 36 0 34 46 47 124
35z m-3974 -20 c5 -11 10 -35 10 -53 l0 -33 51 0 c45 0 54 -4 73 -28 19 -26
21 -41 20 -144 -1 -121 -6 -136 -49 -131 -18 3 -20 11 -23 88 -3 116 -7 130
-37 130 -35 0 -45 -27 -45 -124 0 -76 -2 -85 -20 -91 -11 -3 -30 -3 -41 0 -21
7 -22 10 -16 189 2 99 8 189 12 199 10 23 52 22 65 -2z m960 -16 c0 -30 -4
-35 -27 -41 -54 -11 -58 -18 -18 -23 35 -5 40 -10 43 -35 4 -34 -10 -46 -55
-46 l-33 0 -2 -72 c0 -40 -2 -77 -3 -83 -2 -5 -3 -23 -4 -38 -1 -26 -4 -28
-33 -25 l-33 3 4 108 3 107 -26 0 c-30 0 -41 19 -32 55 5 18 13 25 30 25 19 0
27 8 36 35 14 43 50 64 108 65 41 0 42 0 42 -35z m733 15 c3 -11 2 -31 -1 -45
-4 -13 -6 -78 -4 -145 l3 -120 35 0 c34 0 35 -1 32 -32 l-3 -33 -110 0 c-104
0 -110 1 -113 21 -4 26 22 48 56 49 26 0 27 2 30 73 3 71 3 72 -22 72 -31 0
-47 27 -35 58 6 16 16 22 39 22 29 0 30 2 30 43 0 50 5 57 36 57 13 0 24 -8
27 -20z m577 -98 c0 -66 -3 -153 -6 -194 l-7 -75 -74 -7 c-115 -11 -146 20
-145 141 1 102 39 153 114 153 47 0 48 1 48 31 0 44 17 69 45 69 l25 0 0 -118z
m880 62 c0 -44 3 -54 13 -47 6 5 29 10 49 12 33 2 40 -2 58 -31 17 -28 20 -50
20 -139 0 -112 -8 -135 -47 -127 -16 3 -19 17 -23 108 -5 97 -7 105 -26 108
-34 5 -45 -21 -51 -117 -5 -78 -9 -91 -25 -97 -38 -12 -42 8 -39 184 2 92 7
175 12 184 5 10 21 18 34 18 24 0 25 -3 25 -56z m2858 33 c3 -16 -134 -329
-164 -374 -16 -26 -46 -30 -63 -9 -13 16 -14 13 76 206 24 52 52 111 60 130 9
19 23 43 31 52 18 21 56 18 60 -5z m943 6 c2 -33 -2 -44 -77 -206 -75 -161
-102 -201 -129 -190 -25 9 -17 56 23 139 21 43 56 117 77 164 21 47 43 91 48
98 14 19 57 15 58 -5z m-2301 -54 l0 -60 38 3 37 3 5 55 c5 54 6 55 38 58 l32
3 -1 -138 c0 -76 -4 -158 -7 -183 -7 -42 -9 -45 -37 -45 l-30 0 -3 78 -3 77
-34 0 c-37 0 -42 -10 -47 -110 -3 -41 -5 -45 -32 -48 -16 -2 -32 2 -37 9 -10
16 1 319 13 342 5 10 20 17 38 17 30 0 30 0 30 -61z m-1202 13 c2 -17 9 -33
15 -33 7 -1 26 -2 42 -3 23 -1 31 -6 33 -24 5 -33 -15 -52 -54 -52 l-34 0 0
-64 c0 -63 16 -96 39 -81 6 3 20 -4 31 -15 16 -16 18 -24 10 -40 -16 -31 -93
-28 -125 5 -23 22 -25 32 -25 110 0 83 0 85 -24 85 -49 0 -44 67 5 77 21 4 29
11 29 27 0 53 53 60 58 8z m4095 -56 c44 -20 83 -36 88 -36 12 0 29 -35 29
-59 0 -29 -25 -48 -115 -87 -86 -37 -113 -42 -121 -19 -14 35 6 64 59 88 l52
24 -50 24 c-40 19 -51 30 -53 52 -3 27 14 61 27 53 3 -2 41 -20 84 -40z
m-2534 0 c20 -21 26 -38 29 -88 6 -89 -11 -144 -51 -168 -67 -41 -144 -16
-167 56 -25 76 10 198 65 222 35 16 97 5 124 -22z m258 21 c7 -4 18 -27 24
-50 l11 -41 13 32 c17 40 69 72 116 72 40 0 85 -36 95 -77 7 -27 4 -26 40 -9
16 8 52 24 79 36 28 12 64 29 82 37 40 19 53 11 53 -32 0 -32 -4 -37 -57 -64
-48 -24 -55 -30 -38 -36 76 -26 85 -35 85 -75 0 -33 -3 -40 -20 -40 -20 0
-198 75 -214 91 -6 5 -14 5 -21 -1 -6 -5 -42 -10 -80 -12 l-70 -3 23 -23 c17
-17 30 -22 45 -17 12 4 36 8 52 9 27 1 30 -2 33 -31 4 -36 -12 -49 -75 -59
-53 -8 -107 15 -130 58 l-18 33 -3 -37 c-4 -42 -32 -59 -59 -37 -13 11 -14 28
-8 100 4 58 3 89 -4 94 -8 4 -11 -19 -12 -72 -1 -105 -9 -128 -39 -128 -25 0
-25 1 -28 103 -3 122 -22 131 -22 11 0 -88 -10 -119 -40 -119 -30 0 -35 18
-31 140 3 125 9 147 43 152 43 6 163 3 175 -5z m1101 -22 c43 -20 88 -42 101
-49 20 -11 28 -10 60 6 67 34 171 78 186 78 22 0 20 -63 -2 -82 -10 -8 -33
-21 -51 -29 -40 -17 -37 -29 15 -46 41 -14 54 -35 45 -75 -6 -30 -28 -27 -132
18 l-104 45 -50 -24 c-165 -78 -190 -81 -184 -25 2 27 10 37 43 53 70 36 70
35 17 60 -54 25 -70 51 -52 85 14 27 19 26 108 -15z m-3873 -1 c30 -30 45 -64
45 -103 0 -42 -17 -51 -97 -51 -81 0 -96 -15 -48 -46 23 -15 30 -15 73 -2 l47
16 3 -36 c2 -19 -1 -39 -7 -45 -6 -6 -42 -11 -80 -11 -60 -1 -73 2 -95 23 -47
44 -56 142 -20 212 20 39 42 53 98 60 28 3 52 7 53 8 1 0 14 -11 28 -25z
m1301 1 c11 -17 14 -50 12 -141 -3 -117 -3 -119 -27 -122 -34 -5 -40 11 -34
99 3 42 3 86 -1 95 -14 36 -26 -9 -26 -99 0 -82 -2 -88 -22 -96 -38 -14 -45 2
-40 93 2 47 1 93 -2 103 -14 35 -26 -10 -26 -99 0 -78 -2 -88 -21 -98 -15 -9
-24 -8 -36 2 -13 11 -15 30 -9 132 4 66 12 128 17 138 8 15 23 17 105 16 87
-1 97 -3 110 -23z m579 15 c3 -5 15 -10 25 -10 10 0 20 -3 22 -8 2 -4 33 -20
71 -36 64 -27 67 -30 67 -62 0 -41 -11 -48 -139 -100 -88 -36 -94 -37 -106
-20 -9 11 -11 26 -6 39 9 23 56 55 82 56 9 1 21 7 27 14 9 10 3 16 -26 27 -75
27 -93 49 -76 94 7 18 49 22 59 6z m-6126 -14 c7 -8 11 -30 9 -48 -3 -29 -9
-36 -63 -62 l-59 -29 49 -19 c66 -26 75 -35 75 -73 0 -59 -46 -60 -190 -2 -80
32 -108 48 -120 69 -13 25 -13 29 6 54 11 15 27 31 35 35 66 32 210 88 230 88
9 1 22 -5 28 -13z m666 -16 c36 -16 70 -30 75 -30 10 0 22 -5 67 -28 18 -9 42
-3 144 38 67 28 128 50 135 50 16 0 34 -31 34 -59 0 -21 -47 -55 -92 -66 -42
-11 -34 -28 19 -45 55 -18 86 -58 67 -87 -13 -21 -59 -29 -88 -15 -51 24 -182
72 -197 72 -9 0 -66 -20 -125 -45 -110 -45 -195 -60 -190 -32 5 29 57 97 76
97 10 0 22 5 25 10 3 6 15 10 26 10 36 0 15 22 -39 42 -57 21 -74 50 -53 94
14 32 36 30 116 -6z m1391 19 c4 -8 9 -8 17 0 17 17 93 13 111 -5 18 -18 21
-55 5 -71 -7 -7 -21 -8 -43 -2 -24 7 -36 5 -56 -9 -23 -17 -25 -27 -28 -106
-3 -81 -4 -88 -27 -98 -19 -8 -28 -8 -41 3 -14 12 -16 30 -11 139 2 69 8 133
12 143 8 19 50 23 61 6z m352 -9 c23 -22 52 -82 52 -108 0 -37 -30 -52 -107
-52 -77 0 -86 -7 -53 -40 24 -24 22 -24 83 -5 54 16 61 11 55 -41 -3 -32 -25
-41 -103 -43 -89 -2 -135 48 -135 146 0 51 17 102 44 128 40 40 128 48 164 15z
m1324 -2 c27 -32 32 -60 25 -166 -7 -96 -15 -115 -47 -109 -12 2 -16 24 -20
105 -5 112 -16 133 -55 108 -17 -11 -21 -28 -25 -105 -5 -94 -15 -114 -50
-108 -12 2 -16 26 -18 130 -1 71 2 135 7 146 9 15 23 19 87 19 67 1 80 -2 96
-20z m642 16 c9 -3 16 -11 16 -16 0 -5 8 -21 19 -34 l19 -24 26 40 c21 32 32
40 56 40 41 0 39 -22 -6 -87 -31 -46 -34 -54 -23 -75 6 -13 15 -25 19 -28 17
-13 40 -57 40 -77 0 -19 -5 -23 -33 -23 -27 0 -36 7 -57 40 -14 22 -28 40 -31
40 -4 0 -18 -18 -33 -40 -22 -34 -32 -40 -61 -40 -19 0 -35 5 -35 10 0 6 20
40 44 77 l45 66 -35 45 c-41 54 -45 92 -10 92 13 0 31 -3 40 -6z m-1386 -71
l-3 -38 -121 -3 c-133 -3 -152 4 -140 53 l6 25 131 0 130 0 -3 -37z m0 -102
c2 -20 -2 -37 -10 -42 -15 -10 -218 -12 -242 -3 -18 7 -21 36 -5 65 9 18 19
19 132 17 l122 -3 3 -34z m8620 -293 c-6 -51 -132 -325 -161 -351 -15 -13 -23
-15 -33 -6 -8 6 -14 18 -14 26 0 15 146 340 163 361 5 6 18 12 30 12 17 0 19
-5 15 -42z m-878 5 c0 -51 -155 -376 -182 -381 -9 -2 -22 6 -28 18 -11 21 -5
38 114 293 40 85 48 97 71 97 21 0 25 -5 25 -27z m-1590 -3 c24 -37 -4 -70
-60 -70 -50 0 -70 -8 -63 -26 3 -10 22 -14 58 -14 58 0 71 -13 55 -54 -7 -19
-18 -25 -64 -30 -56 -7 -56 -8 -56 -42 l0 -34 59 0 c51 0 61 -3 66 -20 4 -13
0 -31 -9 -45 -15 -23 -23 -25 -96 -25 -67 0 -81 3 -89 19 -16 29 4 332 22 346
24 17 166 13 177 -5z m832 -23 c2 -15 11 -23 28 -25 32 -5 50 -20 50 -42 0
-21 -28 -47 -55 -52 -15 -2 -22 -14 -26 -48 -7 -46 3 -69 32 -73 41 -7 51 -37
22 -69 -21 -24 -64 -23 -97 3 -24 19 -26 26 -26 99 0 72 -2 79 -25 94 -36 24
-34 64 5 79 17 7 30 19 30 28 0 10 7 25 16 34 19 19 41 6 46 -28z m-3592 -27
l0 -48 45 6 c79 8 100 -40 87 -198 -6 -70 -10 -85 -25 -88 -36 -7 -46 15 -40
88 7 83 -1 120 -26 120 -31 0 -41 -24 -47 -106 -3 -44 -7 -85 -9 -91 -5 -14
-51 -18 -59 -5 -3 5 -2 86 2 181 7 150 10 175 26 186 30 23 46 8 46 -45z m802
-92 l3 -153 30 -5 c25 -4 30 -10 30 -35 0 -34 -30 -47 -80 -33 -50 13 -55 29
-55 174 0 130 0 133 -22 136 -15 2 -24 11 -26 27 -5 31 12 41 70 41 l47 0 3
-152z m648 81 l0 -60 32 3 c30 3 33 6 43 58 9 52 12 55 40 55 38 0 39 -11 30
-203 -7 -138 -8 -144 -31 -154 -41 -19 -56 5 -52 81 l3 66 -32 3 c-29 3 -32 0
-37 -30 -3 -18 -7 -51 -8 -72 -3 -46 -28 -67 -55 -50 -14 9 -17 22 -15 63 2
28 0 51 -6 51 -5 0 -55 -20 -111 -45 -56 -25 -106 -45 -111 -45 -5 0 -14 9
-20 19 -16 31 3 64 46 80 69 24 71 32 12 60 -46 22 -53 30 -53 55 0 37 25 54
57 39 51 -25 139 -63 148 -63 5 0 15 -9 23 -20 13 -19 15 -13 19 62 2 46 8 89
12 96 4 7 20 12 37 12 29 0 29 0 29 -61z m-4492 -14 l3 -50 48 3 c44 3 50 1
70 -26 18 -26 21 -44 21 -141 0 -101 -2 -111 -21 -121 -41 -22 -48 -8 -51 102
-3 102 -3 103 -29 106 -36 4 -49 -31 -49 -128 0 -76 -1 -80 -24 -86 -47 -12
-49 -4 -42 185 4 97 10 184 12 194 4 13 14 17 32 15 25 -3 27 -7 30 -53z
m2339 38 c7 -6 13 -23 13 -37 0 -24 4 -26 41 -26 39 0 40 -1 37 -32 -3 -30 -6
-33 -43 -38 l-40 -5 -3 -64 c-3 -67 4 -80 43 -81 38 -1 50 -16 37 -44 -10 -23
-18 -26 -60 -26 -70 0 -84 18 -91 127 -6 82 -8 88 -29 91 -19 3 -23 9 -20 35
2 27 8 33 31 35 19 2 27 9 27 23 0 24 21 58 34 56 6 -1 16 -7 23 -14z m989 3
c3 -8 7 -23 8 -33 2 -13 14 -19 42 -23 33 -4 39 -9 39 -29 0 -25 -14 -36 -57
-46 -27 -5 -28 -8 -28 -64 0 -62 9 -77 50 -83 31 -4 39 -37 14 -55 -10 -7 -35
-13 -55 -13 -59 0 -79 33 -79 130 0 75 -1 78 -26 84 -21 6 -25 12 -22 38 2 25
9 34 28 38 14 3 26 14 29 25 7 41 45 61 57 31z m-4937 -5 c8 -5 13 -25 13 -53
l-1 -43 56 0 c52 0 58 -2 74 -30 21 -35 23 -51 21 -171 -2 -97 -10 -112 -53
-99 -17 6 -19 17 -19 99 0 80 -3 95 -20 111 -19 17 -21 17 -40 0 -17 -16 -20
-31 -20 -111 0 -91 -1 -94 -25 -100 -57 -14 -58 -11 -52 189 3 100 8 190 12
200 8 18 32 22 54 8z m971 -21 c0 -31 -22 -50 -59 -50 -12 0 -21 -4 -21 -10 0
-5 15 -10 34 -10 36 0 51 -18 41 -51 -4 -13 -16 -19 -35 -19 -58 0 -60 -3 -60
-115 0 -62 -4 -106 -11 -110 -5 -4 -22 -4 -35 -1 l-26 7 4 104 3 104 -28 5
c-25 5 -28 10 -25 38 2 27 8 34 29 36 20 2 28 10 32 32 10 48 43 70 104 70 52
0 53 -1 53 -30z m9558 -53 c6 -5 12 -22 12 -36 0 -41 -17 -57 -102 -96 -91
-41 -106 -43 -114 -11 -7 28 11 66 30 66 8 0 24 9 37 19 l24 19 -37 15 c-41
17 -57 52 -39 86 11 20 13 20 94 -16 45 -20 88 -41 95 -46z m-1244 64 c3 -4
27 -16 53 -26 26 -10 64 -29 85 -41 31 -20 38 -21 48 -9 7 8 16 15 21 15 5 0
43 16 85 35 41 19 79 35 84 35 13 0 19 -41 10 -66 -5 -13 -25 -30 -45 -38 -43
-18 -44 -30 -5 -46 40 -16 53 -41 40 -74 -11 -30 -25 -32 -66 -12 -16 8 -55
26 -86 41 l-58 26 -96 -46 c-54 -25 -103 -44 -111 -41 -14 6 -17 43 -7 71 4 9
24 23 46 32 31 12 36 18 27 29 -6 8 -16 14 -22 14 -33 0 -64 79 -40 103 9 10
31 9 37 -2z m-1460 -12 c25 -12 56 -72 56 -110 0 -46 -17 -59 -80 -59 -62 0
-80 -10 -55 -30 14 -12 44 -10 93 5 20 7 22 4 22 -34 0 -38 -3 -43 -35 -57
-44 -18 -69 -18 -110 2 -87 41 -81 220 8 274 36 23 65 25 101 9z m156 1 c27
17 72 11 91 -12 16 -18 19 -38 19 -133 0 -99 -2 -114 -20 -130 -17 -15 -22
-16 -36 -4 -14 11 -15 26 -10 95 6 67 4 83 -9 94 -29 24 -46 -9 -54 -99 -5
-55 -12 -85 -21 -91 -20 -13 -26 -12 -40 5 -9 11 -10 43 -3 136 8 99 13 124
28 135 12 9 22 10 30 4 6 -5 16 -5 25 0z m538 1 c8 -5 12 -22 10 -42 -3 -32
-5 -34 -40 -33 -21 1 -38 -3 -38 -7 0 -5 3 -9 8 -10 73 -7 102 -69 67 -144
-18 -37 -51 -55 -102 -55 -59 0 -91 46 -63 90 8 12 14 13 41 3 18 -7 36 -10
40 -7 17 10 8 23 -21 29 -53 12 -74 67 -50 132 6 15 18 34 27 41 19 14 101 16
121 3z m272 -25 c0 -35 -28 -68 -71 -81 -28 -9 -23 -18 22 -38 38 -16 40 -20
37 -55 -4 -49 -24 -51 -113 -11 -83 37 -105 55 -105 84 0 36 22 55 110 95 109
49 120 50 120 6z m-1876 -1 c23 -20 30 -35 34 -75 6 -68 -6 -80 -79 -80 -65 0
-78 -9 -49 -35 18 -16 22 -17 61 -1 34 14 44 15 50 4 13 -19 11 -52 -4 -72
-30 -41 -158 -27 -179 20 -13 28 -28 32 -28 6 0 -41 -54 -58 -65 -21 -4 11 -4
47 0 79 4 36 3 66 -4 77 -8 14 -10 2 -11 -54 0 -85 -12 -123 -39 -123 -23 0
-38 17 -44 50 -4 21 -4 20 -6 -8 -1 -24 -7 -35 -23 -41 -32 -12 -48 4 -48 48
l-1 36 -20 -38 c-40 -75 -142 -85 -182 -18 -22 38 -23 155 -2 198 33 67 120
85 169 37 14 -15 26 -35 26 -45 0 -10 5 -21 10 -24 6 -4 10 7 10 25 0 64 10
70 115 69 102 0 115 -7 115 -58 0 -30 12 -26 32 9 32 57 116 75 162 35z m597
-56 l25 -82 29 79 c27 70 33 79 58 82 24 3 27 0 27 -26 0 -27 -57 -199 -81
-243 -13 -25 -65 -26 -78 -1 -5 9 -21 63 -36 119 -31 114 -29 153 9 153 20 0
26 -10 47 -81z m-2234 31 c13 -24 17 -218 6 -247 -3 -7 -16 -13 -28 -13 -30 0
-38 25 -30 94 7 54 -1 123 -13 111 -4 -4 -9 -50 -12 -103 -5 -97 -5 -97 -32
-100 l-28 -3 0 100 c0 56 -4 101 -9 101 -5 0 -13 -45 -16 -100 -7 -87 -10
-100 -27 -106 -11 -3 -25 -1 -30 4 -13 13 -11 238 2 263 11 19 41 24 145 24
53 0 61 -3 72 -25z m-1012 0 c9 -8 15 -24 13 -39 -3 -24 -6 -26 -47 -23 -63 4
-83 -5 -51 -23 14 -8 33 -14 44 -15 25 0 66 -49 66 -80 0 -73 -77 -122 -157
-101 -46 12 -57 29 -43 65 8 23 11 24 49 14 70 -18 101 12 33 32 -60 19 -77
36 -77 79 0 47 20 85 49 99 29 13 101 8 121 -8z m-955 -15 c0 -18 -81 -247
-93 -263 -6 -7 -24 -12 -41 -10 -30 3 -32 7 -64 103 -18 55 -34 118 -35 140
-2 36 0 40 24 43 29 3 32 -2 64 -112 20 -66 21 -65 56 38 16 46 30 71 44 76
24 9 45 2 45 -15z m194 14 c26 -12 56 -72 56 -112 0 -37 -19 -47 -91 -47 -37
0 -70 -4 -73 -8 -3 -5 2 -19 11 -31 11 -17 22 -22 42 -18 14 3 41 8 59 12 31
6 32 5 32 -30 0 -29 -5 -37 -27 -46 -73 -28 -151 -5 -180 52 -18 34 -16 125 4
166 29 62 105 90 167 62z m267 -10 c24 -27 30 -78 21 -173 -7 -83 -22 -106
-57 -92 -16 6 -17 15 -11 86 9 96 3 120 -29 120 -30 0 -37 -18 -44 -120 l-6
-85 -30 0 -30 0 2 108 c0 60 4 123 7 142 l6 32 77 1 c65 1 79 -2 94 -19z
m-1515 2 c22 -3 34 -55 34 -155 0 -109 -11 -141 -46 -134 -17 3 -19 14 -22
111 -1 59 -6 107 -11 107 -4 0 -11 -46 -15 -102 -4 -56 -9 -105 -12 -110 -3
-4 -16 -8 -30 -8 -24 0 -24 0 -24 104 0 58 -4 107 -9 110 -11 7 -21 -67 -21
-151 l0 -64 -32 3 -33 3 3 125 c2 69 6 133 8 142 4 12 18 18 47 20 40 3 140 3
163 -1z m228 -2 c33 -15 58 -70 54 -117 l-3 -37 -83 -3 c-71 -2 -83 -5 -78
-18 3 -9 6 -20 6 -25 0 -5 6 -9 14 -9 8 0 16 -5 18 -11 3 -8 19 -6 52 5 57 20
71 12 61 -33 -8 -35 -31 -45 -108 -46 -43 0 -52 4 -83 37 -31 34 -34 43 -34
98 0 104 49 169 127 170 18 0 43 -5 57 -11z m532 -14 c15 -15 27 -41 30 -70 9
-64 -3 -75 -87 -75 -57 0 -69 -3 -69 -16 0 -32 69 -60 84 -35 3 5 17 11 31 13
20 4 26 1 31 -17 10 -39 -11 -63 -60 -70 -93 -14 -151 25 -165 111 -5 27 -9
41 -10 32 -1 -16 -14 -18 -120 -18 -101 0 -120 2 -125 16 -4 9 -4 25 -1 35 6
17 18 19 108 20 56 0 110 2 120 4 9 2 17 -3 17 -11 0 -26 17 -14 23 15 4 17
19 44 34 60 24 27 35 31 81 31 43 0 57 -5 78 -25z m-1033 -10 c29 -30 41 -90
31 -163 -20 -151 -206 -158 -231 -9 -10 61 6 125 39 162 27 32 35 35 83 35 43
0 57 -5 78 -25z m-1675 3 c9 -9 15 -9 24 0 13 13 75 16 102 6 11 -4 16 -19 16
-46 l0 -39 -43 6 c-64 10 -87 -14 -87 -92 0 -33 -3 -75 -6 -92 -6 -29 -10 -32
-38 -29 l-31 3 -3 120 c-3 126 8 175 37 175 9 0 22 -5 29 -12z m367 -14 c31
-41 46 -91 35 -119 -8 -22 -15 -24 -87 -27 -62 -2 -78 -6 -81 -19 -2 -9 8 -24
22 -33 23 -15 29 -15 71 -1 51 18 65 14 65 -18 0 -33 -13 -46 -51 -57 -48 -14
-86 -12 -123 5 -46 22 -66 62 -66 135 0 107 46 159 140 160 48 0 58 -3 75 -26z
m-2413 -1 c10 -9 18 -28 18 -43 0 -24 -9 -32 -67 -60 l-66 -33 49 -19 c65 -26
74 -35 74 -73 0 -59 -39 -59 -180 -4 -120 46 -130 53 -130 86 0 39 16 59 62
78 24 9 57 22 73 30 65 28 130 53 139 54 5 1 18 -6 28 -16z m715 -32 c67 -27
125 -46 130 -42 4 5 24 14 43 21 19 7 49 19 65 26 125 54 151 57 161 19 10
-40 -1 -54 -68 -85 l-61 -29 47 -21 c26 -11 51 -20 56 -20 11 0 20 -27 20 -62
0 -30 0 -31 -47 -26 -27 3 -64 12 -83 20 -19 9 -61 26 -92 39 l-57 22 -113
-46 c-176 -71 -230 -70 -178 6 18 27 42 46 71 57 24 10 44 21 46 26 2 5 -20
17 -47 27 -63 22 -81 53 -56 92 9 14 22 25 29 25 8 0 68 -22 134 -49z m2273
-6 c0 -47 -23 -55 -149 -55 -102 0 -121 7 -121 45 0 40 18 45 147 45 l123 0 0
-35z m-33 -70 c27 -6 38 -37 23 -65 -10 -19 -18 -20 -133 -18 l-122 3 -3 26
c-5 44 13 51 158 56 30 1 65 0 77 -2z m8131 -362 c-1 -76 1 -144 5 -150 5 -7
17 -13 28 -13 25 0 35 -25 21 -56 -9 -19 -19 -24 -46 -24 -67 0 -82 37 -72
185 7 97 6 104 -12 109 -24 8 -35 42 -21 68 7 13 21 18 55 18 l46 0 -4 -137z
m1019 117 c7 -10 16 -38 19 -62 l7 -43 28 63 c24 52 32 62 53 62 35 0 39 -21
31 -179 -6 -113 -11 -142 -26 -162 -19 -23 -20 -23 -34 -5 -10 14 -13 35 -8
85 l6 66 -22 -27 c-26 -33 -51 -36 -58 -8 -10 37 -23 20 -23 -30 0 -104 -52
-141 -58 -41 -4 63 13 275 23 290 10 18 49 12 62 -9z m-2580 -12 c4 -7 6 -77
4 -155 l-3 -141 29 -4 c22 -2 29 -9 31 -29 2 -14 -4 -31 -12 -38 -15 -12 -158
-17 -176 -6 -6 3 -10 19 -10 35 0 25 5 31 33 38 31 8 32 10 35 64 3 49 0 57
-18 63 -42 13 -34 85 10 85 13 0 19 11 24 42 4 22 9 45 12 50 8 12 32 10 41
-4z m445 -5 c1 -10 2 -76 2 -148 l1 -130 25 -3 c35 -5 44 -16 36 -47 -9 -36
-46 -51 -85 -36 -45 19 -55 55 -48 177 5 102 4 107 -19 127 -46 39 -25 77 43
77 34 0 43 -4 45 -17z m733 -33 c0 -44 -1 -45 -30 -42 -47 4 -71 -6 -83 -33
-19 -41 -15 -119 7 -146 18 -22 22 -23 53 -11 47 17 48 16 48 -23 0 -43 -32
-75 -74 -75 -78 1 -119 56 -120 164 -1 87 23 155 66 191 26 22 39 25 82 23
l51 -3 0 -45z m-1649 -100 c1 -169 -1 -158 32 -162 21 -2 28 -9 30 -31 4 -37
-13 -57 -50 -57 -74 0 -92 44 -82 193 l6 103 -26 12 c-17 8 -26 19 -26 35 0
35 20 48 70 45 l45 -3 1 -135z m-1172 104 c4 -10 4 -68 0 -129 -8 -138 -3
-163 34 -167 21 -2 28 -9 30 -30 4 -33 -20 -48 -65 -41 -60 9 -68 30 -66 168
2 121 2 123 -22 139 -26 17 -32 45 -15 62 6 6 30 11 54 13 33 1 45 -2 50 -15z
m782 -173 c-6 -134 -10 -159 -26 -175 -31 -31 -50 -6 -50 65 l0 60 -29 -15
c-26 -14 -30 -14 -41 -1 -21 25 -26 17 -29 -42 -2 -64 -14 -85 -45 -81 -17 2
-22 12 -26 53 -6 58 -2 58 -118 9 -66 -29 -86 -33 -97 -24 -34 29 -6 80 54
100 23 7 41 16 41 19 0 3 -23 16 -50 28 -44 19 -50 25 -50 51 0 47 21 57 77
36 26 -10 63 -26 81 -36 57 -31 72 -21 72 50 0 67 9 82 46 82 38 0 42 -6 58
-67 11 -43 12 -44 23 -22 6 13 16 38 23 56 9 25 18 33 43 35 20 2 36 -3 41
-11 5 -8 6 -83 2 -170z m592 177 c7 -7 12 -22 12 -35 0 -20 5 -23 35 -23 29 0
36 -4 41 -25 8 -32 -19 -65 -51 -65 -26 0 -35 -17 -35 -65 0 -35 24 -70 41
-59 13 7 39 -14 39 -32 0 -24 -39 -54 -69 -54 -61 0 -77 31 -80 151 -1 48 -4
57 -21 62 -15 4 -20 14 -20 41 0 30 4 37 25 42 14 3 25 11 25 18 0 14 29 56
39 56 4 0 12 -5 19 -12z m-2158 -57 l0 -46 49 3 c71 5 81 -13 81 -150 0 -83
-3 -110 -16 -122 -12 -12 -20 -13 -35 -6 -17 9 -19 22 -19 105 0 94 0 95 -24
95 -30 0 -36 -16 -43 -112 -6 -83 -18 -104 -53 -93 -23 7 -23 7 -11 219 6 115
11 141 25 152 30 22 46 6 46 -45z m5551 17 c15 -28 8 -210 -10 -231 -7 -9 -19
-13 -27 -10 -11 4 -14 26 -14 89 0 68 -3 86 -16 91 -25 9 -35 -10 -45 -88 -12
-83 -30 -113 -53 -89 -11 12 -12 37 -6 125 10 132 15 148 44 141 12 -3 35 -2
51 3 35 9 60 -1 76 -31z m-222 5 c26 -32 35 -65 27 -95 -10 -40 -20 -47 -70
-50 -27 -2 -51 -8 -53 -15 -6 -17 45 -29 60 -14 6 6 19 11 29 11 29 0 25 -65
-6 -85 -71 -47 -148 -9 -162 80 -9 60 18 147 54 174 40 30 95 28 121 -6z
m-5039 -32 c0 -17 6 -21 35 -21 29 0 36 -4 41 -25 8 -33 -11 -55 -46 -55 -31
0 -40 -18 -40 -81 0 -40 12 -55 50 -61 35 -4 41 -53 8 -64 -37 -13 -48 -13
-77 -3 -37 13 -49 42 -49 115 -1 32 -1 65 -1 72 -1 7 -12 17 -26 22 -38 14
-31 64 10 71 12 3 21 14 23 27 2 12 13 28 24 36 17 13 23 13 34 1 8 -7 14 -23
14 -34z m4197 22 c22 -33 15 -225 -9 -249 -29 -29 -38 -7 -38 89 0 63 -3 87
-10 77 -5 -8 -10 -45 -10 -82 0 -48 -5 -71 -16 -83 -30 -29 -39 -12 -44 86 -4
73 -7 86 -12 60 -5 -18 -8 -53 -8 -78 0 -55 -14 -83 -42 -83 -21 0 -21 2 -15
123 4 68 9 131 13 140 6 17 30 22 117 23 51 1 61 -2 74 -23z m198 5 c11 -17
15 -49 15 -125 0 -91 -2 -105 -21 -124 -12 -12 -25 -17 -30 -12 -4 4 -9 49
-11 98 -2 73 -6 90 -19 93 -20 4 -36 -34 -44 -109 -8 -71 -25 -99 -49 -80 -14
12 -16 29 -10 115 3 56 10 115 15 131 9 30 11 31 74 33 56 1 66 -1 80 -20z
m-6337 -125 c-5 -168 -4 -173 31 -173 47 0 66 -34 35 -64 -24 -25 -81 -20
-109 9 -28 27 -29 35 -25 188 l2 107 -25 0 c-29 0 -41 23 -27 51 9 15 22 19
67 19 l56 0 -5 -137z m5453 108 c27 -27 29 -35 29 -101 0 -86 -18 -133 -62
-160 -60 -38 -118 -11 -136 63 -38 150 79 287 169 198z m335 18 c3 -6 6 -46 5
-88 -2 -78 14 -122 37 -107 15 9 32 72 32 121 0 64 10 86 34 83 20 -3 21 -7
19 -127 -3 -130 -12 -159 -51 -160 -10 0 -35 -1 -57 -2 -30 -1 -44 4 -58 23
-17 20 -19 35 -15 134 3 61 8 117 12 123 9 14 33 14 42 0z m-6778 -43 c2 -15
0 -33 -5 -39 -13 -19 -4 -248 10 -246 44 5 57 -1 57 -30 0 -29 -1 -29 -72 -36
-40 -4 -89 -5 -108 -3 -31 3 -35 6 -35 33 0 27 3 30 38 33 l37 3 0 75 c0 71
-1 74 -24 74 -26 0 -40 23 -31 51 6 19 9 21 48 23 19 1 22 6 19 33 -2 17 2 41
7 52 16 29 55 13 59 -23z m5771 23 c42 -39 54 -108 24 -141 -11 -13 -30 -18
-64 -18 -52 0 -67 -11 -44 -30 12 -10 24 -10 54 -1 52 15 51 15 51 -20 0 -47
-15 -66 -60 -73 -107 -17 -166 75 -130 206 23 80 118 124 169 77z m-6308 -1
c1 -7 2 -78 3 -158 l1 -145 32 0 c23 0 36 -6 44 -22 18 -34 -3 -53 -61 -53
-41 0 -52 4 -70 28 -21 25 -22 35 -18 154 l5 127 -26 3 c-20 2 -27 9 -29 32
-4 36 3 40 67 44 36 2 51 -1 52 -10z m5857 -8 c54 -50 50 -197 -7 -253 -18
-18 -41 -30 -61 -32 -28 -2 -35 -8 -44 -35 -14 -42 -42 -61 -57 -40 -10 15 -4
278 8 330 9 40 18 45 81 47 47 2 63 -2 80 -17z m-7088 -35 c0 -30 -4 -35 -27
-41 -53 -11 -58 -18 -15 -22 40 -3 42 -4 42 -37 0 -36 -12 -45 -61 -45 l-29 0
0 -97 c0 -54 -4 -104 -9 -111 -4 -8 -19 -12 -32 -10 -23 3 -24 6 -27 111 -2
96 -5 107 -21 107 -10 0 -24 7 -31 15 -20 24 3 65 35 65 15 0 25 6 25 15 0 26
22 63 44 73 11 6 40 11 64 11 41 1 42 1 42 -34z m1458 23 c7 -7 12 -25 12 -40
0 -27 2 -28 45 -28 40 0 45 -2 45 -23 0 -32 -18 -47 -57 -47 l-34 0 3 -72 c3
-73 3 -73 33 -76 38 -4 58 -28 44 -53 -13 -26 -98 -26 -129 -1 -19 15 -22 28
-23 107 -2 88 -3 90 -27 93 -35 5 -42 15 -31 45 8 20 18 27 36 27 18 0 25 5
25 20 0 25 21 60 35 60 6 0 16 -5 23 -12z m4606 -4 c3 -9 6 -55 6 -104 0 -67
3 -89 14 -93 25 -10 39 21 46 101 9 96 16 114 44 110 20 -3 21 -8 21 -135 0
-157 -1 -158 -103 -158 -67 0 -67 0 -85 35 -15 30 -17 49 -11 130 3 52 10 103
15 113 12 21 45 22 53 1z m-7030 0 c12 -4 16 -20 16 -54 l0 -47 50 5 c44 4 53
1 70 -19 28 -32 31 -49 28 -169 l-3 -105 -34 0 -34 0 2 87 c2 90 -8 128 -35
128 -33 0 -43 -26 -46 -121 l-3 -94 -35 0 -35 0 1 182 c1 205 7 227 58 207z
m5993 -34 c14 -27 16 -126 5 -200 -6 -40 -10 -45 -32 -45 -24 0 -25 3 -26 60
-2 113 -4 126 -14 120 -5 -3 -10 -42 -10 -85 0 -82 -15 -115 -45 -104 -11 5
-15 25 -15 84 0 119 -13 130 -25 21 -7 -70 -14 -97 -27 -105 -32 -20 -40 5
-39 116 1 56 6 118 12 135 l10 33 97 -3 c92 -2 97 -3 109 -27z m-1484 -14 c19
-17 29 -36 33 -70 9 -64 -3 -76 -82 -76 -69 0 -85 -11 -58 -41 21 -23 40 -24
88 -4 35 15 36 15 42 -10 12 -50 -20 -75 -97 -75 -32 0 -98 22 -99 33 0 1 -7
20 -15 42 l-14 40 -1 -42 c0 -38 -19 -73 -39 -73 -24 0 -32 32 -27 107 3 43 1
85 -4 93 -14 22 -19 -2 -22 -99 -3 -68 -6 -86 -21 -95 -29 -18 -50 18 -42 72
3 23 3 63 -1 89 -10 69 -22 30 -23 -74 -1 -79 -2 -83 -25 -89 -38 -9 -46 2
-46 61 l0 54 -117 3 c-116 3 -118 4 -121 27 -2 13 0 27 5 32 4 4 61 9 126 10
l117 3 0 28 c0 62 11 68 117 67 114 -1 122 -6 124 -89 1 -55 1 -55 10 -17 5
20 16 49 25 63 37 56 119 71 167 30z m249 2 c17 -20 21 -39 20 -103 0 -16 -1
-58 -1 -91 -1 -66 -13 -81 -53 -68 -17 5 -19 15 -17 95 3 97 -7 123 -39 103
-21 -14 -29 -49 -31 -131 -1 -58 -3 -63 -25 -69 -45 -11 -49 -1 -41 125 10
161 8 157 96 159 62 1 75 -2 91 -20z m128 -72 c0 -102 5 -126 26 -126 26 0 44
43 44 107 0 83 12 113 46 113 l26 0 -4 -130 c-2 -79 -8 -134 -15 -141 -11 -11
-64 -20 -122 -21 -13 0 -33 10 -45 21 -18 18 -22 36 -24 117 -5 112 8 154 44
154 24 0 24 -2 24 -94z m-1609 53 c11 -11 19 -30 17 -42 -3 -20 -8 -22 -54
-19 -46 3 -54 0 -74 -25 -16 -21 -20 -36 -16 -62 9 -56 40 -69 114 -46 22 7
23 5 20 -31 -3 -36 -6 -39 -49 -52 -43 -14 -50 -13 -85 4 -53 27 -77 75 -70
141 2 29 10 64 18 80 31 65 135 96 179 52z m229 8 c29 -24 40 -58 40 -124 0
-111 -38 -163 -121 -163 -87 0 -133 105 -94 214 22 62 51 85 110 85 28 0 57
-5 65 -12z m-1497 -16 c8 -1 8 -140 -2 -226 l-6 -60 -45 -4 c-153 -12 -159 -5
-160 155 0 117 6 134 47 134 23 0 23 -2 23 -104 0 -83 3 -106 16 -117 14 -11
20 -10 40 14 21 24 24 38 24 103 0 83 11 114 37 109 10 -2 21 -4 26 -4z m-247
-39 c12 -29 13 -58 8 -144 l-7 -108 -28 0 -28 0 -3 108 c-4 139 -21 141 -28 2
l-5 -105 -34 -3 -34 -3 6 70 c6 76 0 141 -14 141 -5 0 -9 -42 -9 -94 0 -99
-12 -131 -49 -124 -14 3 -16 22 -19 131 -1 76 2 135 8 147 9 18 21 20 115 19
l105 0 16 -37z m-1087 1 c23 -21 33 -40 37 -75 9 -67 -5 -78 -99 -78 -69 0
-75 -2 -70 -19 9 -35 47 -46 100 -29 l48 16 3 -36 c2 -19 -1 -39 -7 -45 -6 -6
-45 -11 -87 -11 -73 -1 -77 0 -105 32 -26 29 -29 39 -29 103 0 112 40 163 134
168 37 1 50 -3 75 -26z m-359 6 c0 -8 4 -8 14 0 8 7 37 11 68 9 l53 -3 0 -40
0 -40 -50 3 c-65 4 -76 -13 -83 -125 -4 -77 -7 -84 -28 -89 -13 -3 -28 -3 -33
1 -14 8 -15 250 -1 276 11 20 60 27 60 8z m-1350 -44 c52 -20 103 -41 114 -47
13 -7 26 -6 45 2 14 7 35 16 46 20 11 5 36 15 55 23 136 59 145 60 154 15 6
-28 3 -36 -20 -54 -14 -12 -44 -27 -65 -34 -31 -10 -37 -16 -28 -27 6 -7 20
-13 30 -13 10 0 21 -4 24 -10 3 -5 14 -10 25 -10 21 0 30 -19 30 -61 0 -26 -3
-29 -35 -29 -19 0 -44 4 -57 9 -13 5 -60 24 -106 41 l-83 32 -111 -47 c-81
-35 -127 -49 -167 -51 -31 -1 -49 0 -41 2 8 3 24 24 35 47 17 35 29 45 72 62
29 11 53 23 53 26 0 3 -25 16 -55 28 -64 27 -82 50 -64 84 14 26 30 38 44 33
6 -2 53 -20 105 -41z m-692 23 c7 -7 12 -24 12 -39 0 -30 -28 -55 -87 -78 -18
-8 -33 -17 -33 -21 0 -5 23 -16 51 -25 36 -12 53 -24 60 -42 13 -35 12 -41
-17 -60 -25 -16 -30 -16 -127 18 -115 39 -161 65 -165 96 -5 37 39 70 153 117
121 48 135 52 153 34z m2974 -5 c13 -63 -9 -73 -158 -73 -83 0 -94 2 -104 20
-15 28 3 58 37 63 16 2 72 5 125 6 85 1 97 -1 100 -16z m1806 -50 l-3 -38
-120 0 c-118 0 -120 0 -123 23 -6 41 10 47 133 50 l116 3 -3 -38z m-1815 -42
c15 -2 7 -69 -9 -75 -25 -10 -227 -7 -244 4 -11 7 -12 15 -4 37 9 27 11 28
104 33 82 4 118 5 153 1z m9381 -223 c3 -11 15 -18 31 -18 23 0 26 -4 23 -27
-2 -20 -9 -29 -26 -31 -26 -4 -42 -36 -42 -86 0 -36 15 -56 42 -56 19 0 24
-25 9 -49 -11 -18 -65 -19 -85 -1 -12 9 -16 32 -16 88 0 68 -3 79 -27 104 -22
23 -24 30 -13 43 7 8 19 15 26 15 8 0 19 12 25 27 20 52 34 49 53 -9z m-2636
14 c9 -6 12 -43 10 -148 l-3 -139 27 -3 c31 -4 42 -25 28 -53 -15 -28 -77 -26
-103 4 -18 20 -19 32 -13 139 l6 117 -27 19 c-25 18 -26 22 -15 46 9 20 19 26
44 26 18 0 39 -4 46 -8z m-738 -86 c0 -65 -3 -77 -22 -90 -13 -10 -27 -12 -37
-7 -17 10 -61 -4 -73 -22 -4 -7 1 -19 13 -28 27 -20 19 -51 -17 -68 -14 -6
-30 -25 -36 -41 -11 -32 -41 -55 -58 -45 -6 3 -10 18 -11 33 0 26 -1 26 -9 5
-12 -30 -50 -50 -61 -32 -4 8 -6 24 -2 37 3 14 -1 30 -11 41 -24 27 -12 71 20
71 28 0 34 34 8 44 -10 4 -14 16 -12 38 2 25 9 34 28 38 15 4 32 20 44 43 23
44 43 48 52 10 3 -16 7 -32 8 -38 2 -5 10 7 19 28 21 49 50 48 55 -1 4 -44 28
-41 37 5 9 49 12 53 41 53 23 0 24 -2 24 -74z m-809 47 c17 -17 0 -52 -27 -59
-32 -8 -31 -24 2 -24 22 0 25 -4 22 -27 -2 -19 -12 -32 -33 -42 -41 -19 -45
-27 -45 -101 0 -94 -7 -112 -39 -108 l-26 3 4 96 3 96 -26 7 c-38 9 -34 76 5
76 12 0 24 12 33 34 8 18 23 40 34 47 22 16 78 17 93 2z m3782 -5 c34 -18 46
-40 47 -83 0 -54 -13 -65 -77 -65 -57 0 -68 -13 -37 -44 19 -19 17 -19 59 -2
39 17 47 12 38 -23 -10 -43 -22 -51 -78 -51 -45 0 -57 4 -74 25 -26 34 -35 77
-26 133 5 37 16 55 46 84 42 40 66 46 102 26z m238 -5 c21 -24 17 -219 -4
-240 -27 -27 -37 -5 -37 81 0 58 -4 87 -13 95 -24 19 -46 -19 -53 -90 -8 -72
-18 -99 -39 -99 -12 0 -15 16 -14 83 0 45 4 102 7 127 7 43 9 45 47 51 71 11
92 9 106 -8z m-4877 1 c12 -4 16 -20 16 -56 0 -39 3 -48 13 -40 10 8 35 9 79
3 4 -1 15 -15 24 -33 14 -26 16 -51 11 -131 -5 -101 -13 -120 -47 -114 -12 2
-16 22 -18 94 -2 79 -6 94 -22 103 -31 17 -50 -22 -50 -105 0 -81 -8 -98 -41
-93 l-24 3 3 150 c4 148 14 225 32 225 4 0 15 -3 24 -6z m4256 -10 c10 -11 11
-23 4 -42 -8 -23 -14 -26 -41 -24 -41 4 -59 -23 -68 -103 -8 -68 -19 -95 -40
-95 -12 0 -15 18 -14 93 0 50 3 110 7 132 7 38 9 40 44 40 20 0 40 3 44 8 13
12 51 8 64 -9z m226 1 c4 -9 2 -27 -4 -41 -9 -18 -19 -24 -42 -24 -45 0 -59
-20 -66 -92 -4 -35 -11 -71 -16 -80 -9 -18 -33 -24 -41 -10 -9 13 11 245 21
251 6 3 40 7 76 9 54 2 67 0 72 -13z m-681 -19 c13 -19 14 -29 6 -45 -9 -16
-18 -19 -47 -14 -31 5 -40 2 -55 -18 -25 -33 -24 -63 5 -96 22 -26 26 -27 50
-13 34 18 51 4 37 -33 -27 -71 -136 -58 -161 19 -25 74 9 186 62 212 42 20 86
14 103 -12z m103 -62 c3 -99 8 -124 28 -124 21 0 44 60 44 114 0 82 40 134 53
69 9 -42 -5 -211 -17 -229 -8 -10 -34 -18 -73 -21 -58 -5 -62 -4 -78 21 -15
23 -17 42 -12 127 5 96 17 134 41 126 6 -2 12 -36 14 -83z m-1014 53 c11 -8
17 -23 14 -38 -3 -21 -9 -24 -46 -27 -37 -3 -42 -6 -31 -18 6 -8 19 -14 28
-14 63 -2 77 -112 20 -161 -25 -22 -108 -26 -127 -7 -15 15 -16 65 -1 74 6 3
21 1 34 -6 24 -13 55 -8 55 8 0 5 -19 17 -42 28 -42 18 -43 21 -46 70 -3 43 1
54 24 77 30 30 87 37 118 14z m231 -27 c0 -33 -2 -35 -37 -38 -41 -3 -53 -22
-15 -22 47 0 79 -68 58 -122 -14 -36 -50 -59 -100 -61 -51 -2 -76 20 -67 57 6
23 10 26 51 23 52 -2 61 14 15 27 -46 14 -67 62 -51 116 14 48 36 60 101 57
44 -2 45 -2 45 -37z m-445 3 c20 -25 21 -38 18 -125 -1 -53 -7 -101 -13 -107
-5 -5 -23 -13 -40 -16 -92 -18 -93 -18 -119 8 -35 35 -35 89 -1 139 28 41 30
49 13 46 -19 -4 -21 31 -4 57 14 21 24 25 71 25 47 0 56 -4 75 -27z m-4991 8
c19 -12 10 -359 -9 -371 -24 -15 -138 -22 -160 -10 -65 35 -67 195 -3 262 21
22 36 28 70 28 41 0 43 1 43 30 0 33 19 70 35 70 5 0 16 -4 24 -9z m4549 0 c8
-5 12 -21 10 -37 -3 -27 -6 -29 -47 -29 -57 -1 -86 -32 -77 -85 7 -46 28 -61
69 -49 44 13 47 12 47 -13 0 -29 -9 -42 -37 -57 -39 -20 -73 -13 -109 23 -31
31 -34 39 -34 95 0 71 25 131 62 148 28 14 98 16 116 4z m1150 -25 c2 -16 -1
-33 -6 -38 -7 -7 -7 -20 0 -38 11 -32 -1 -64 -30 -78 -9 -5 -50 -9 -90 -10
-82 0 -108 14 -95 52 4 11 6 40 5 64 -4 74 3 78 115 78 l98 -1 3 -29z m-6255
15 c11 -1 8 -66 -5 -79 -8 -8 -8 -15 2 -27 9 -10 11 -43 9 -112 l-4 -98 30 0
c34 1 49 -16 40 -45 -6 -18 -16 -20 -116 -20 -101 0 -109 1 -109 19 0 29 25
49 54 44 14 -3 26 -4 27 -2 0 2 3 36 6 76 l5 72 -29 3 c-23 2 -29 9 -31 32 -4
33 10 45 53 47 17 0 24 3 18 6 -30 11 -5 94 26 88 9 -2 19 -4 24 -4z m238
-142 c-3 -157 -2 -161 48 -163 22 -1 27 -6 29 -32 3 -26 -1 -33 -20 -37 -13
-3 -32 -4 -43 -2 -11 2 -27 4 -35 4 -9 1 -24 15 -34 32 -16 27 -18 48 -15 152
l4 121 -25 6 c-28 7 -40 47 -18 61 7 5 36 8 63 7 l50 -3 -4 -146z m-581 87 l0
-55 38 6 c20 3 39 7 41 9 10 9 44 -22 57 -52 11 -25 13 -58 8 -133 -7 -105
-14 -119 -57 -105 -18 6 -19 12 -14 93 7 112 -10 145 -55 104 -14 -13 -18 -31
-18 -87 0 -100 -6 -116 -41 -116 l-29 0 0 175 c0 187 6 215 47 215 21 0 23 -5
23 -54z m3801 30 c16 -7 49 -78 49 -106 0 -32 -32 -50 -90 -50 -41 0 -59 -4
-63 -14 -12 -31 36 -48 82 -30 47 20 51 18 51 -22 0 -31 -4 -37 -37 -51 -50
-20 -109 -12 -142 22 -23 23 -26 33 -25 98 0 59 5 79 25 109 13 20 33 42 44
47 21 10 78 8 106 -3z m-302 -11 c5 -3 12 -1 16 5 7 11 64 14 89 4 39 -15 7
-91 -32 -77 -22 8 -59 -6 -67 -24 -5 -10 -11 -52 -14 -93 l-6 -75 -30 0 -30 0
3 100 c5 130 16 175 42 170 11 -2 24 -6 29 -10z m-4799 -51 c0 -50 2 -55 18
-49 35 16 81 17 95 3 30 -30 37 -60 37 -161 0 -110 -8 -133 -47 -125 -16 3
-18 16 -21 98 -3 94 -11 120 -40 120 -29 0 -41 -33 -42 -112 0 -96 -5 -108
-41 -108 l-29 0 0 176 c0 102 4 183 10 195 6 11 21 19 35 19 24 0 25 -3 25
-56z m5621 23 c5 -17 1 -33 -9 -48 -11 -16 -12 -24 -4 -27 7 -2 12 -17 12 -32
0 -46 -31 -60 -131 -60 -104 0 -120 11 -100 65 9 25 9 40 1 54 -7 14 -7 27 1
45 11 24 17 25 93 28 128 5 129 4 137 -25z m-1663 -14 c-3 -35 -8 -40 -54 -63
-49 -25 -62 -50 -24 -50 10 0 22 -4 25 -10 3 -5 15 -10 26 -10 16 0 19 -7 19
-39 0 -29 -5 -41 -18 -45 -17 -6 -184 55 -209 76 -27 22 -7 98 25 98 6 0 27 9
49 19 148 74 165 76 161 24z m-656 6 c23 -12 54 -26 68 -31 78 -30 95 -43 98
-75 4 -38 -7 -46 -126 -97 -93 -40 -120 -44 -129 -19 -11 27 19 65 67 83 54
21 61 35 20 43 -49 10 -80 36 -80 66 0 26 16 51 31 51 4 0 27 -10 51 -21z
m-4825 -134 c1 -77 2 -148 2 -157 1 -13 10 -18 34 -18 34 0 57 -15 57 -36 0
-46 -105 -62 -147 -22 -22 20 -23 28 -23 160 0 126 -2 138 -18 138 -24 0 -42
19 -42 45 0 32 9 36 75 33 l60 -3 2 -140z m4454 124 c25 -28 32 -88 22 -184
l-8 -80 -30 0 -30 0 0 92 c0 99 -11 127 -43 107 -22 -15 -30 -45 -31 -130 -1
-62 -4 -72 -21 -77 -10 -3 -27 1 -36 7 -15 11 -16 27 -11 127 7 144 10 153 53
146 19 -3 36 -1 39 4 12 18 77 10 96 -12z m-462 -3 c7 -8 11 -27 9 -43 -3 -26
-6 -28 -45 -25 -64 5 -83 -22 -83 -114 0 -53 -4 -77 -16 -88 -18 -18 -17 -18
-38 -10 -13 5 -16 26 -16 128 1 138 10 163 58 153 15 -3 34 -2 42 4 23 14 76
11 89 -5z m217 -11 c17 -17 27 -40 31 -75 5 -47 4 -50 -21 -60 -15 -5 -52 -10
-82 -10 -45 0 -54 -3 -54 -18 0 -33 35 -44 90 -28 46 14 49 14 55 -4 19 -60
-82 -101 -159 -65 -80 38 -88 185 -14 255 26 25 39 30 80 30 39 0 54 -5 74
-25z m-1510 -19 c8 -8 14 -28 14 -45 0 -33 -14 -38 -55 -22 -44 17 -95 -25
-95 -78 0 -23 44 -71 65 -71 9 0 29 7 45 15 17 9 30 12 30 8 0 -5 3 -18 6 -30
10 -36 -27 -63 -86 -63 -91 0 -138 58 -125 154 8 64 29 102 68 126 38 23 112
26 133 6z m-528 -20 c6 -13 8 -33 5 -44 -4 -18 -11 -20 -59 -15 -30 3 -54 2
-54 -2 0 -14 34 -34 59 -35 25 0 56 -29 67 -62 6 -21 -12 -75 -33 -96 -21 -21
-74 -33 -120 -26 -54 8 -70 26 -55 59 12 27 40 32 73 15 13 -8 25 -7 39 0 30
16 25 25 -22 40 -81 26 -109 77 -74 139 18 33 46 46 109 49 48 2 55 0 65 -22z
m-261 -13 c22 -27 23 -34 21 -143 l-3 -115 -55 -8 c-102 -15 -121 -13 -147 17
-25 29 -31 92 -13 127 15 26 62 49 105 49 35 0 47 13 21 23 -12 5 -31 2 -96
-14 -22 -6 -26 48 -4 72 13 15 31 19 82 19 58 0 67 -3 89 -27z m-1339 -7 c17
-6 22 -15 22 -42 l0 -35 -56 3 c-64 3 -87 -16 -32 -27 60 -12 83 -25 97 -56
13 -30 5 -72 -22 -107 -21 -27 -80 -43 -130 -37 -55 8 -73 29 -57 69 7 20 14
24 32 19 39 -10 91 -8 95 3 4 12 -38 34 -64 34 -31 0 -63 41 -63 81 0 43 38
96 73 101 34 5 80 3 105 -6z m280 2 c16 -16 15 -68 0 -69 -7 0 -34 0 -60 1
-27 1 -48 -2 -48 -6 0 -14 36 -33 63 -34 57 0 83 -68 52 -134 -21 -44 -71 -61
-147 -51 -53 8 -64 20 -54 60 7 28 37 33 80 14 20 -9 29 -9 41 1 8 7 15 15 15
19 0 9 -60 31 -83 31 -46 0 -65 110 -24 147 12 11 29 23 37 26 28 10 116 7
128 -5z m-555 -9 c38 -17 47 -50 47 -169 0 -124 12 -109 -102 -127 -96 -16
-138 14 -138 98 0 35 6 47 36 75 28 27 44 34 75 34 22 0 39 5 39 11 0 7 -13 9
-37 6 -93 -14 -88 -15 -88 23 0 27 6 37 25 47 31 16 111 17 143 2z m-512 -9
c13 -7 19 -21 19 -44 0 -41 -15 -49 -64 -34 -32 10 -39 9 -61 -12 -33 -31 -33
-79 -1 -117 l24 -28 45 17 c51 19 57 16 57 -23 0 -32 -26 -53 -77 -64 -45 -9
-97 10 -129 48 -24 29 -26 37 -22 110 3 78 4 79 45 118 38 35 48 39 93 39 28
0 60 -5 71 -10z m1379 -38 l0 -39 -67 -6 c-156 -15 -203 -7 -203 34 0 38 24
45 149 48 l121 2 0 -39z m-2435 -16 c0 -38 -2 -41 -58 -68 -32 -16 -56 -32
-53 -37 3 -4 23 -13 45 -21 50 -16 74 -41 69 -71 -6 -45 -48 -47 -160 -9 -56
19 -112 43 -125 53 -27 22 -30 57 -5 85 21 26 228 111 262 109 22 -2 25 -7 25
-41z m3745 -10 c0 -45 -11 -48 -145 -44 l-100 3 0 30 c0 35 11 38 158 43 l87
3 0 -35z m-1317 -45 c4 0 7 -17 7 -36 0 -44 -10 -47 -155 -43 l-110 3 -3 26
c-2 14 3 31 10 37 16 13 199 23 251 13z m-735 -470 c34 -18 93 -42 112 -46 11
-2 35 -11 55 -20 29 -15 35 -22 35 -50 0 -38 -5 -43 -90 -79 -36 -16 -84 -37
-107 -47 -27 -13 -52 -17 -73 -12 -17 3 -28 9 -23 12 4 3 13 19 18 34 8 22 24
35 65 52 53 22 77 45 47 45 -27 0 -107 39 -114 55 -3 9 -1 27 5 41 12 25 39
31 70 15z m-605 -36 c6 -35 -15 -59 -75 -85 l-53 -23 45 -19 c71 -30 75 -33
78 -72 3 -36 3 -36 -35 -36 -58 0 -233 69 -246 97 -18 41 15 69 143 122 63 26
120 46 126 44 7 -3 14 -15 17 -28z m10783 -235 c2 -171 0 -160 29 -160 21 0
25 -5 25 -28 0 -40 -31 -66 -68 -57 -46 10 -56 46 -49 171 5 96 4 105 -14 117
-22 13 -26 56 -7 75 7 7 29 12 48 10 l35 -3 1 -125z m473 106 c16 -15 19 -33
19 -142 l1 -126 -32 -34 c-29 -30 -38 -34 -88 -35 -31 -1 -62 1 -69 6 -9 6
-10 38 -5 139 9 171 17 204 53 208 54 7 103 0 121 -16z m-684 -7 c4 -11 4 -67
0 -123 -8 -117 -3 -143 28 -148 33 -5 34 -41 1 -67 -31 -24 -60 -20 -87 13
-15 18 -17 35 -11 137 6 112 6 117 -15 128 -23 13 -27 32 -11 62 16 28 86 27
95 -2z m-355 -36 c0 -31 -26 -63 -51 -63 -23 0 -26 -14 -35 -130 -6 -95 -22
-140 -48 -140 -21 0 -23 14 -18 147 l5 122 -34 3 c-29 3 -34 7 -37 31 -6 49
10 57 119 57 l99 0 0 -27z m-745 -127 l0 -140 25 -6 c27 -6 37 -35 21 -59 -15
-24 -71 -18 -94 10 -18 22 -19 34 -13 131 6 102 5 107 -18 135 -18 22 -21 33
-15 51 8 20 15 23 51 20 l43 -3 0 -139z m-729 57 l-4 -31 45 1 c42 2 48 -1 65
-30 16 -27 18 -43 12 -121 -7 -100 -10 -108 -39 -114 -19 -3 -20 3 -23 89 -2
68 -6 93 -17 97 -26 10 -43 -22 -50 -96 -8 -79 -17 -98 -47 -98 -19 0 -19 5
-13 143 7 150 17 212 38 220 20 8 39 -25 33 -60z m2615 46 c7 -14 9 -44 4 -85
-4 -41 -2 -70 5 -84 11 -20 13 -21 30 -5 13 12 21 38 26 83 8 82 19 112 39
112 23 0 28 -41 17 -151 -7 -75 -14 -106 -26 -114 -23 -17 -104 -27 -126 -15
-25 13 -34 66 -27 155 10 113 32 152 58 104z m-2347 -41 c5 -27 9 -30 35 -25
56 12 48 -52 -9 -72 -30 -10 -31 -12 -28 -68 3 -55 4 -58 32 -63 39 -7 43 -24
13 -54 -20 -20 -30 -23 -58 -17 -44 9 -59 39 -59 123 0 57 -3 69 -20 78 -29
16 -26 58 5 70 14 5 28 18 32 27 18 50 47 50 57 1z m-1051 12 c10 -40 -10
-321 -24 -335 -20 -19 -108 -35 -135 -25 -43 17 -57 53 -52 135 6 95 36 139
101 152 38 8 43 12 55 51 15 46 45 58 55 22z m2411 8 c34 -15 45 -58 39 -155
-7 -105 -17 -119 -92 -127 -37 -4 -68 -3 -80 4 -29 15 -36 67 -16 120 10 25
17 63 16 85 -1 51 8 65 50 75 49 11 55 11 83 -2z m-504 -41 c123 -51 120 -49
120 -83 0 -20 -8 -40 -22 -53 -29 -28 -175 -94 -188 -86 -29 18 1 80 54 110
16 9 14 13 -20 36 -33 21 -38 29 -36 54 5 40 19 56 40 45 10 -4 33 -15 52 -23z
m-2730 -26 c0 -49 0 -50 28 -42 33 9 43 8 62 -4 30 -20 39 -60 33 -159 -5 -82
-9 -99 -25 -107 -36 -19 -47 4 -42 84 6 78 -8 113 -38 102 -20 -8 -28 -36 -28
-107 0 -38 -5 -62 -16 -72 -17 -17 -40 -21 -48 -8 -13 21 -2 262 15 324 8 31
14 38 34 38 23 0 25 -4 25 -49z m2174 17 c17 -23 21 -151 7 -212 -6 -30 -35
-56 -47 -43 -4 3 -6 46 -5 94 2 104 -14 103 -22 0 -6 -70 -18 -97 -43 -97 -11
0 -14 19 -14 85 0 47 -4 85 -9 85 -4 0 -11 -34 -13 -76 -6 -83 -24 -118 -52
-95 -12 10 -14 31 -9 104 3 51 9 109 15 130 l9 39 59 -4 c32 -1 62 0 66 5 14
14 43 7 58 -15z m-883 -30 c6 -10 5 -27 -1 -42 -8 -21 -16 -26 -45 -26 -45 0
-61 -25 -70 -113 -6 -52 -12 -70 -26 -78 -36 -19 -42 -2 -36 110 7 132 17 164
51 155 14 -3 33 -1 42 4 26 14 75 8 85 -10z m-2961 -41 l0 -49 34 6 c71 13
111 -33 110 -129 0 -69 -20 -121 -55 -146 -27 -19 -37 -20 -97 -13 l-67 9 3
160 c4 177 13 212 57 212 11 0 15 -13 15 -50z m758 41 c7 -7 12 -22 12 -35 0
-20 5 -23 34 -23 40 0 50 -11 42 -45 -5 -18 -15 -26 -41 -31 -26 -5 -35 -12
-36 -28 -1 -11 -3 -35 -5 -53 -3 -36 17 -58 50 -58 15 0 22 -7 24 -26 2 -21
-3 -29 -27 -39 -34 -14 -84 -6 -102 16 -7 9 -15 53 -17 100 -3 55 -9 84 -16
84 -40 0 -39 66 0 76 13 3 24 11 24 18 0 14 29 56 39 56 4 0 12 -5 19 -12z
m1937 -12 c32 -32 42 -89 21 -121 -14 -21 -25 -25 -61 -25 -25 0 -48 0 -51 1
-16 2 -21 -25 -8 -39 14 -14 40 -13 92 3 20 7 22 4 22 -24 0 -38 -32 -61 -88
-64 -49 -2 -86 17 -101 50 -17 38 -13 124 8 163 38 72 121 101 166 56z m-2181
8 c10 -4 16 -18 16 -35 0 -27 3 -29 35 -29 62 0 59 -56 -4 -74 -26 -7 -31 -14
-33 -40 -3 -78 6 -100 45 -101 16 0 23 -7 25 -26 2 -21 -3 -29 -27 -39 -34
-14 -84 -6 -103 17 -8 10 -14 46 -15 92 -1 42 -2 79 -2 84 -1 4 -7 7 -15 7
-40 0 -41 66 0 76 13 3 26 16 30 27 6 21 23 47 29 47 2 0 10 -3 19 -6z m-932
-151 l3 -148 29 -5 c16 -3 34 -13 40 -23 16 -27 -26 -59 -72 -55 -62 5 -74 35
-73 177 1 121 1 121 -24 131 -27 10 -33 38 -13 58 7 7 33 12 60 12 l47 0 3
-147z m2655 120 c24 -27 25 -32 21 -125 -3 -54 -10 -104 -17 -111 -12 -15 -75
-29 -126 -28 -41 2 -65 33 -65 87 0 34 6 51 31 79 29 32 30 35 10 35 -15 0
-21 6 -21 23 0 43 34 66 98 67 34 0 48 -6 69 -27z m-2898 -130 l-4 -148 35 -5
c29 -4 36 -10 38 -32 3 -22 -2 -30 -23 -38 -39 -15 -67 -12 -95 11 -24 20 -25
26 -27 143 -2 155 -1 146 -17 146 -24 0 -39 26 -26 49 9 17 20 21 66 21 l56 0
-3 -147z m2676 121 c18 -24 29 -76 21 -102 -8 -25 -27 -33 -91 -39 -27 -2 -52
-7 -54 -9 -3 -3 5 -14 17 -26 23 -23 22 -23 95 7 14 6 17 2 17 -28 0 -45 -19
-59 -85 -65 -50 -4 -57 -2 -85 26 -27 28 -30 36 -30 97 0 74 15 112 57 145 35
28 115 24 138 -6z m-713 -16 c10 -12 21 -33 25 -46 6 -25 -5 -190 -13 -204 -3
-4 -16 -8 -29 -8 -30 0 -38 25 -30 94 9 66 0 96 -26 96 -26 0 -39 -37 -39
-110 0 -62 -18 -94 -49 -88 -13 3 -16 20 -17 110 -1 69 4 117 12 138 13 29 17
32 44 27 16 -4 32 -2 35 3 11 19 67 11 87 -12z m-238 -13 c29 -31 39 -80 30
-143 -9 -64 -30 -97 -75 -117 -43 -20 -73 -15 -112 16 -25 19 -27 26 -27 95 0
47 6 86 15 104 37 71 124 94 169 45z m-2904 -14 c0 -29 -14 -41 -51 -41 -30 0
-22 -20 9 -21 15 -1 30 -1 35 0 4 0 7 -15 7 -34 0 -36 -9 -41 -62 -36 -13 2
-17 -13 -23 -96 -8 -121 -9 -123 -40 -123 l-25 0 0 105 c0 105 0 105 -24 105
-30 0 -40 14 -32 45 4 17 14 25 34 27 20 2 28 9 30 27 7 43 42 70 95 70 45 1
47 0 47 -28z m658 -8 c3 -31 5 -33 43 -33 69 0 65 -62 -5 -68 l-36 -3 0 -63
c0 -69 10 -86 53 -86 25 0 28 -3 25 -27 -5 -46 -95 -55 -133 -13 -13 14 -17
37 -16 98 l1 80 -30 6 c-18 3 -30 12 -30 21 0 28 20 55 40 55 12 0 20 7 20 16
0 59 63 74 68 17z m1558 -118 c-4 -70 -12 -125 -19 -132 -7 -6 -42 -14 -78
-18 -103 -11 -116 9 -110 170 3 78 18 115 47 115 24 0 24 -1 24 -99 0 -70 4
-102 13 -110 25 -20 45 18 55 109 11 91 30 122 60 98 12 -10 13 -34 8 -133z
m-3126 76 l0 -48 50 5 c46 4 53 2 76 -24 25 -28 25 -31 19 -139 -3 -60 -7
-110 -8 -111 -1 -1 -13 -4 -27 -6 -25 -3 -25 -3 -30 96 -4 78 -9 101 -22 110
-13 8 -22 6 -37 -8 -18 -16 -21 -31 -21 -101 0 -87 -8 -105 -49 -105 l-24 0 6
180 c4 100 9 185 12 190 4 6 17 10 31 10 22 0 24 -4 24 -49z m1884 -7 c23 -24
26 -34 25 -93 0 -36 -4 -86 -7 -111 -6 -38 -11 -45 -32 -48 -14 -1 -42 -7 -63
-13 -55 -15 -102 3 -116 43 -19 55 5 120 53 140 34 14 36 15 69 17 22 2 22 2
-2 12 -17 7 -34 6 -53 -2 -54 -22 -75 7 -37 55 18 23 28 26 78 26 50 0 62 -4
85 -26z m2446 5 c0 -47 -15 -56 -107 -63 -100 -8 -123 -3 -123 28 0 38 13 45
90 49 41 1 90 4 108 5 26 2 32 -2 32 -19z m-3702 -40 c68 -62 49 -153 -30
-149 -79 5 -96 1 -91 -19 9 -34 44 -45 94 -28 41 14 44 14 51 -3 16 -44 -29
-80 -101 -80 -70 0 -121 55 -121 128 0 81 23 131 73 158 35 20 101 16 125 -7z
m-340 -1 c9 -9 15 -9 24 0 7 7 34 12 60 12 l48 0 0 -41 0 -40 -43 6 c-64 10
-81 -14 -86 -121 -3 -79 -5 -85 -26 -90 -45 -11 -48 0 -41 134 3 69 11 132 17
139 14 16 31 17 47 1z m892 -32 c0 -42 -6 -44 -125 -46 -132 -3 -125 -5 -125
34 0 19 5 36 12 38 7 3 63 6 125 7 l113 2 0 -35z m1480 4 c0 -40 -19 -47 -120
-50 -119 -4 -120 -3 -120 23 0 39 13 46 86 49 39 2 90 4 113 5 39 3 41 2 41
-27z m-3267 -10 c12 -45 -15 -69 -118 -104 -18 -7 -17 -8 10 -21 51 -22 77
-32 96 -34 6 0 9 -17 7 -38 -2 -27 -8 -39 -21 -41 -17 -3 -80 18 -162 53 -62
28 -79 27 -146 -4 -121 -56 -170 -72 -184 -61 -6 5 -15 6 -19 2 -5 -4 -2 9 6
28 14 33 25 41 116 84 22 9 22 11 5 18 -105 41 -113 46 -113 77 0 44 24 53 78
30 24 -11 50 -19 58 -19 8 0 14 -4 14 -10 0 -5 8 -10 18 -10 10 0 36 -9 58
-19 21 -11 44 -16 49 -12 6 4 42 21 80 37 39 16 86 36 105 46 46 22 57 22 63
-2z m-1053 -51 c0 -36 -3 -40 -50 -64 -27 -14 -57 -25 -67 -25 -16 -1 -16 -2
2 -13 11 -6 40 -19 65 -27 41 -15 45 -19 48 -53 4 -50 -13 -55 -91 -28 -149
53 -177 67 -177 94 0 26 26 67 42 67 12 0 56 18 148 61 73 34 80 33 80 -12z
m2838 -37 c2 -13 -1 -29 -8 -36 -12 -16 -195 -32 -229 -21 -25 8 -27 32 -6 62
14 20 23 21 128 20 109 -2 112 -3 115 -25z m6922 -68 c0 -32 -133 -332 -159
-358 -21 -21 -51 -16 -51 9 0 21 147 335 167 357 23 26 43 22 43 -8z m-1204
-50 c4 -14 3 -74 -1 -134 l-7 -109 64 -3 c55 -3 63 -6 66 -23 5 -38 -36 -62
-115 -67 -49 -4 -76 -1 -82 6 -12 15 4 290 18 329 14 36 48 36 57 1z m1854 -6
c0 -12 -18 -38 -40 -59 -40 -38 -40 -47 3 -62 24 -9 32 -34 19 -63 -12 -26
-47 -32 -80 -14 -9 5 -43 21 -75 36 -53 23 -60 25 -75 11 -20 -19 -148 -77
-168 -77 -9 0 -14 11 -14 29 0 22 10 37 40 61 l40 32 -32 22 c-33 22 -46 59
-30 84 7 10 26 7 92 -17 46 -17 91 -38 102 -47 11 -11 18 -13 18 -5 0 13 180
101 193 94 4 -2 7 -14 7 -25z m-850 -33 c0 -23 -43 -78 -69 -86 -19 -7 -6 -28
25 -39 33 -13 40 -35 19 -66 -20 -31 -41 -29 -128 10 -31 15 -60 26 -66 26 -6
0 -17 -16 -25 -35 -35 -83 -117 -112 -167 -59 -21 22 -24 35 -23 92 1 111 54
182 133 182 25 0 71 -55 71 -86 0 -13 5 -24 10 -24 6 0 10 4 10 10 0 12 192
110 203 103 4 -2 7 -15 7 -28z m-2230 -13 c0 -19 -10 -38 -30 -55 -29 -26 -30
-30 -30 -111 0 -80 1 -85 23 -88 33 -5 34 -41 1 -67 -21 -16 -41 -21 -90 -21
-34 0 -66 5 -69 10 -11 18 15 78 35 83 18 5 20 14 20 91 0 73 -3 88 -17 93
-25 9 -31 20 -25 49 6 33 32 43 115 43 l67 1 0 -28z m1772 13 c12 -15 9 -160
-3 -232 -18 -102 -80 -155 -152 -130 -27 9 -28 12 -22 46 4 20 7 38 7 41 1 3
-7 23 -17 45 -16 37 -18 38 -29 20 -49 -86 -142 -111 -182 -50 -34 51 -10 203
38 243 9 7 32 16 52 19 48 8 82 -16 98 -68 l12 -42 17 40 c25 59 55 78 120 78
30 0 57 -4 61 -10z m-2518 -152 l1 -138 27 -3 c39 -5 48 -40 17 -65 -17 -14
-33 -17 -57 -13 -58 9 -64 26 -58 158 6 117 6 118 -19 134 -27 18 -33 45 -12
62 15 13 79 20 91 10 5 -4 9 -69 10 -145z m1616 117 c20 -11 40 -60 40 -98 0
-35 -27 -62 -64 -63 -17 -1 -42 -4 -55 -8 -21 -6 -22 -8 -7 -20 15 -13 31 -12
84 4 20 7 22 4 22 -24 0 -39 -28 -68 -75 -77 -60 -11 -114 23 -127 81 -4 16
-6 14 -12 -10 -20 -86 -30 -111 -56 -137 -24 -23 -37 -28 -79 -28 -27 0 -53 4
-56 10 -3 5 -1 27 5 49 8 31 7 45 -4 67 -8 16 -18 38 -22 49 -6 16 -8 12 -14
-19 -10 -52 -36 -72 -105 -81 -45 -5 -60 -3 -74 9 -20 18 -47 21 -56 6 -10
-16 -42 -11 -50 8 -6 16 -7 16 -16 0 -11 -19 -54 -25 -64 -9 -3 6 -18 3 -35
-7 -19 -11 -32 -13 -39 -7 -12 13 2 219 18 258 10 27 14 28 69 26 32 -1 64 1
71 5 7 4 23 5 35 2 18 -4 26 -17 35 -51 6 -25 9 -56 5 -70 -8 -30 6 -33 24 -4
10 16 10 24 2 34 -9 11 -9 23 0 49 12 37 30 46 98 46 61 0 82 -24 83 -97 l0
-58 20 55 c10 30 31 67 46 82 24 25 33 27 87 26 34 -1 64 -6 68 -12 4 -6 8
-38 8 -71 l1 -60 20 52 c33 86 106 127 169 93z m-2380 -49 l0 -50 32 10 c50
14 57 12 79 -23 18 -29 20 -45 16 -125 -4 -96 -15 -123 -48 -123 -21 0 -22 7
-19 92 2 76 -6 100 -33 96 -26 -4 -35 -32 -36 -115 -1 -52 -4 -64 -22 -73 -11
-7 -28 -9 -36 -6 -13 6 -14 26 -9 154 9 175 17 212 52 212 22 0 24 -4 24 -49z
m278 0 c3 -31 5 -33 37 -29 37 4 47 -7 38 -41 -3 -12 -19 -25 -39 -31 -29 -10
-34 -16 -40 -57 -8 -55 4 -78 40 -78 36 1 46 -33 16 -57 -23 -19 -75 -24 -99
-9 -17 11 -33 96 -26 143 5 34 3 39 -20 50 -35 16 -33 51 5 78 17 12 30 27 30
34 0 18 22 37 40 34 9 -2 16 -16 18 -37z m-1400 -128 c-3 -76 -3 -144 -1 -150
3 -7 14 -13 26 -13 36 0 50 -15 43 -43 -8 -32 -54 -44 -97 -27 -40 17 -51 63
-43 182 6 94 6 94 -20 111 -53 35 -27 77 47 77 l50 0 -5 -137z m2284 113 c29
-13 72 -31 96 -41 34 -15 42 -23 42 -44 -1 -40 -28 -66 -111 -104 -103 -48
-129 -51 -129 -16 0 35 19 59 61 75 46 19 49 30 10 39 -16 3 -38 16 -49 28
-19 20 -19 25 -7 55 8 17 19 32 24 32 6 0 34 -11 63 -24z m-566 -21 c22 -33
17 -231 -6 -246 -35 -22 -45 -7 -46 74 0 42 -3 80 -6 83 -3 3 -9 -30 -13 -74
-5 -62 -11 -81 -26 -90 -11 -7 -24 -10 -29 -7 -6 4 -10 43 -11 88 0 90 -17 82
-18 -10 -1 -55 -20 -87 -50 -81 -14 3 -16 18 -13 103 1 55 7 117 13 138 l10
38 70 -2 c38 -1 72 1 76 5 13 13 33 5 49 -19z m-3166 -54 c0 -22 -6 -42 -12
-45 -10 -5 -10 -7 0 -12 8 -4 12 -36 12 -110 l0 -104 35 0 35 0 0 85 c0 104
12 135 54 136 17 1 56 3 86 4 30 2 63 1 72 -1 21 -6 40 -62 38 -111 -3 -57 -1
-61 15 -28 16 32 54 55 91 55 13 0 26 5 30 11 4 8 -11 10 -52 7 -47 -2 -59 0
-62 13 -6 32 30 59 90 65 52 6 59 4 83 -20 25 -25 26 -29 23 -138 l-3 -113
-60 -12 c-75 -16 -119 -9 -144 23 l-20 25 -3 -23 c-2 -17 -11 -24 -30 -26
l-28 -3 -1 83 c-1 125 -15 140 -22 23 -7 -99 -15 -118 -47 -112 -11 2 -16 20
-18 77 -4 120 -15 138 -22 33 -3 -51 -10 -97 -16 -103 -13 -13 -269 -26 -276
-14 -12 20 11 54 37 54 31 0 45 30 45 101 0 45 -2 49 -24 49 -30 0 -40 14 -32
46 4 15 14 24 25 24 36 0 53 11 40 26 -19 23 7 74 37 74 21 0 24 -5 24 -39z
m2202 14 c31 -30 41 -85 29 -150 -12 -62 -38 -97 -89 -115 -86 -30 -143 36
-126 148 11 75 43 124 89 135 46 11 73 6 97 -18z m-277 5 c5 -8 11 -7 21 1 7
6 21 8 30 5 14 -5 16 -24 12 -144 -4 -148 -13 -181 -60 -215 -30 -23 -110 -29
-129 -10 -17 17 -2 62 24 72 l22 8 -22 7 c-15 5 -28 23 -40 55 l-17 49 -22
-49 c-37 -79 -114 -103 -173 -53 -30 25 -31 29 -31 100 0 111 32 161 110 170
54 6 85 -14 101 -66 7 -22 15 -40 19 -40 3 0 12 16 18 35 7 18 27 45 43 60 31
26 82 34 94 15z m-2620 -40 c0 -19 -7 -27 -32 -35 -47 -16 -51 -25 -10 -25 35
0 37 -1 37 -34 0 -33 -2 -35 -37 -38 l-38 -3 -5 -98 c-5 -100 -14 -121 -50
-114 -12 2 -15 22 -16 102 -2 96 -3 100 -25 105 -35 9 -34 62 1 70 13 3 27 15
30 27 3 11 14 33 25 47 18 24 26 26 70 24 46 -3 50 -5 50 -28z m1697 -9 c13
-11 30 -38 37 -61 10 -35 14 -39 24 -27 9 11 42 17 120 22 l107 6 0 -30 c0
-44 -25 -52 -153 -52 -175 0 -247 -8 -247 -26 0 -32 30 -42 80 -27 60 18 60
18 60 -16 0 -41 -37 -64 -106 -64 -73 -1 -105 30 -112 107 -6 71 11 119 54
157 42 36 98 41 136 11z m-2602 -47 c0 -41 3 -53 12 -47 7 4 29 9 50 10 31 3
40 -2 57 -26 18 -25 21 -44 21 -140 0 -109 0 -111 -24 -117 -41 -10 -46 2 -46
100 0 107 -11 129 -50 98 -20 -16 -24 -31 -29 -108 l-6 -89 -30 0 -30 0 4 170
c2 94 8 178 13 188 5 9 20 17 33 17 24 0 25 -3 25 -56z m2385 -79 c-1 -149 -5
-172 -41 -214 -30 -36 -78 -48 -128 -31 -39 13 -47 37 -21 64 12 12 21 13 46
4 25 -9 34 -8 47 6 15 15 13 16 -25 16 -25 0 -50 7 -64 19 -21 17 -24 30 -27
98 -3 69 -1 82 20 113 32 47 62 60 133 57 l60 -2 0 -130z m-1762 41 c21 -18
29 -36 34 -74 7 -60 3 -63 -88 -70 -56 -4 -69 -8 -69 -22 0 -9 11 -23 26 -30
22 -12 31 -12 70 3 50 18 62 10 50 -37 -4 -18 -17 -26 -52 -35 -60 -15 -106
-6 -140 30 -24 25 -28 37 -28 92 1 85 36 148 89 159 56 11 81 7 108 -16z
m-210 -7 c5 -9 7 -28 3 -42 -6 -24 -8 -25 -37 -15 -26 9 -35 7 -57 -9 -24 -18
-28 -30 -37 -109 -10 -87 -11 -89 -37 -92 -33 -4 -31 -13 -28 138 1 66 7 121
13 128 7 9 23 12 44 9 18 -3 33 -2 33 2 0 16 92 7 103 -10z m759 -13 c9 -46
-3 -51 -129 -51 -116 0 -118 0 -121 23 -7 45 12 52 133 52 111 0 113 0 117
-24z m-1784 -42 c-2 -28 -10 -39 -33 -51 -54 -29 -65 -33 -80 -33 -8 0 -15 -4
-15 -10 0 -5 7 -10 15 -10 8 0 15 -5 15 -12 0 -6 2 -9 5 -6 3 3 22 0 43 -7 45
-16 65 -56 41 -81 -14 -14 -23 -13 -90 11 -171 62 -166 61 -202 42 -66 -34
-169 -78 -189 -80 -11 -1 -25 6 -32 16 -20 31 0 49 112 100 27 13 20 20 -36
36 -57 16 -84 43 -73 73 11 31 64 28 133 -7 17 -8 39 -15 50 -15 10 0 18 -4
18 -10 0 -5 8 -10 18 -10 10 0 22 -4 28 -10 6 -6 29 0 64 18 30 15 75 35 100
45 25 10 52 22 60 27 8 5 23 9 33 9 15 1 18 -6 15 -35z m-1048 -38 c0 -38 -15
-51 -95 -82 -39 -15 -45 -20 -27 -22 12 -2 22 -8 22 -13 0 -5 6 -9 13 -9 6 0
29 -5 50 -11 36 -10 38 -12 35 -47 -2 -30 -7 -38 -27 -40 -13 -2 -33 1 -45 6
-12 6 -43 18 -71 27 -85 27 -120 48 -123 73 -5 34 20 56 96 89 37 15 83 35
102 45 55 27 70 24 70 -16z m2830 -27 c0 -17 -7 -32 -18 -38 -15 -8 -140 -15
-208 -12 -28 1 -36 22 -20 52 11 22 18 24 116 29 58 3 111 3 118 1 6 -2 12
-16 12 -32z m7564 15 c7 -19 -29 -74 -49 -74 -23 0 -28 -19 -36 -123 -8 -100
-23 -137 -55 -137 -11 0 -13 27 -11 127 l2 128 -30 5 c-23 4 -31 11 -33 31 -5
43 19 52 159 57 35 2 48 -2 53 -14z m-722 -16 c1 -7 2 -71 2 -143 l1 -130 28
-3 c31 -4 34 -17 10 -44 -20 -23 -66 -23 -89 -1 -15 15 -16 31 -10 131 7 108
6 116 -14 137 -34 36 -19 65 31 65 23 0 40 -5 41 -12z m-708 -34 c3 -9 6 -30
6 -47 0 -32 0 -32 44 -29 38 3 46 0 56 -19 19 -34 13 -199 -7 -221 -34 -38
-43 -23 -43 71 0 98 -11 119 -42 81 -11 -14 -18 -38 -18 -65 0 -23 -5 -56 -11
-73 -11 -32 -38 -50 -49 -32 -15 24 11 312 30 335 16 19 26 19 34 -1z m1591
-15 c26 -22 27 -23 23 -119 -4 -118 -14 -135 -90 -145 -73 -10 -98 6 -98 62 0
24 6 58 14 76 7 18 11 46 9 62 -7 51 12 66 108 84 4 0 19 -9 34 -20z m-1331
-19 c5 -25 10 -30 36 -30 23 0 30 -4 30 -19 0 -23 -25 -51 -46 -51 -17 0 -26
-35 -22 -86 2 -32 7 -40 26 -42 53 -8 31 -63 -26 -64 -52 -2 -62 15 -62 103 0
68 -3 80 -20 89 -29 15 -25 45 9 70 17 11 33 29 36 40 9 30 32 24 39 -10z
m845 -20 c88 -36 101 -45 101 -74 0 -36 -25 -61 -100 -100 -88 -45 -110 -47
-110 -7 0 32 18 56 50 66 21 7 28 35 10 35 -6 0 -22 11 -35 24 -22 22 -23 28
-14 55 6 17 14 31 17 31 4 0 40 -14 81 -30z m-2144 -125 l0 -140 27 -3 c34 -4
43 -27 18 -52 -24 -24 -67 -26 -92 -3 -15 14 -18 33 -18 136 0 109 -2 123 -21
143 -17 18 -19 26 -9 44 9 17 19 21 53 18 l42 -3 0 -140z m1589 113 c11 -16
16 -46 16 -99 0 -83 -13 -134 -36 -143 -21 -8 -27 16 -21 90 2 35 1 67 -3 69
-11 7 -20 -32 -20 -86 0 -33 -6 -51 -19 -63 -31 -28 -42 -12 -35 54 3 33 2 69
-2 82 -8 22 -8 22 -15 -7 -4 -16 -7 -49 -8 -72 -1 -43 -32 -90 -51 -78 -11 7
-2 178 12 222 7 26 16 34 44 39 18 3 41 4 49 0 8 -3 25 -1 37 4 33 13 35 12
52 -12z m-2037 -128 l-7 -141 30 -5 c16 -4 31 -13 35 -22 9 -24 -29 -55 -65
-54 -53 1 -60 22 -58 155 1 109 0 119 -20 138 -42 38 -21 69 47 69 l44 0 -6
-140z m-227 -4 c0 -148 3 -166 29 -159 9 2 23 -3 31 -11 11 -14 10 -19 -5 -36
-28 -31 -74 -36 -99 -11 -19 20 -21 31 -19 141 3 110 1 121 -17 132 -19 12
-28 57 -13 71 3 4 26 7 50 7 l43 0 0 -134z m1386 69 c23 -36 16 -154 -12 -192
-46 -62 -130 -69 -159 -13 -30 58 -9 180 38 219 24 19 78 30 100 19 9 -5 24
-20 33 -33z m-426 -74 c0 -52 9 -46 34 20 25 69 42 80 117 77 l64 -3 -2 -124
c-2 -101 -6 -130 -23 -165 -27 -56 -91 -87 -133 -65 -16 9 -18 17 -12 56 5 33
3 49 -8 61 -8 10 -18 35 -22 57 l-7 40 -14 -47 c-27 -89 -115 -128 -169 -73
-21 20 -25 34 -25 85 0 101 41 165 110 172 54 5 90 -32 90 -91z m-2042 62 c-2
-17 -12 -32 -25 -38 -28 -12 -30 -25 -4 -25 45 0 37 -49 -12 -71 -31 -14 -32
-16 -40 -99 -7 -85 -20 -110 -55 -110 -11 0 -13 19 -12 88 3 115 3 112 -20
112 -34 0 -25 59 12 73 9 3 24 21 33 40 18 39 45 55 93 56 31 1 33 -1 30 -26z
m609 -3 c5 -26 10 -30 40 -30 31 0 34 -2 31 -27 -2 -19 -13 -32 -33 -43 -40
-20 -45 -28 -45 -75 0 -46 14 -65 47 -65 16 0 23 -6 23 -19 0 -41 -75 -66
-114 -38 -16 12 -23 62 -26 180 0 4 -9 7 -20 7 -31 0 -28 57 4 72 14 6 30 24
37 39 16 40 48 39 56 -1z m-1443 -26 c3 -9 6 -31 6 -49 0 -33 1 -33 29 -22 38
14 77 -5 86 -42 4 -14 6 -66 6 -116 -1 -72 -5 -93 -19 -103 -37 -28 -47 -12
-48 81 0 96 -9 115 -41 92 -17 -12 -21 -27 -25 -91 -3 -59 -8 -79 -22 -89 -10
-8 -24 -11 -32 -8 -12 5 -14 31 -10 157 3 83 9 164 15 179 12 30 45 37 55 11z
m1732 -21 c24 -26 25 -30 19 -123 -8 -107 -21 -128 -85 -132 -98 -6 -119 8
-120 79 0 33 7 50 31 78 29 32 30 35 10 35 -38 0 -22 68 19 83 8 3 34 6 58 6
34 1 48 -4 68 -26z m-1154 -48 c33 -32 43 -81 24 -110 -11 -17 -28 -23 -71
-28 -66 -7 -73 -11 -58 -35 11 -18 44 -20 96 -7 24 7 27 5 27 -19 0 -60 -117
-88 -175 -42 -28 23 -30 28 -30 98 0 61 4 78 24 107 44 61 121 78 163 36z
m1868 5 c0 -34 -35 -60 -82 -61 -136 -3 -138 -3 -138 24 0 46 0 46 183 55 31
2 37 -1 37 -18z m-2072 1 c8 -5 12 -21 10 -37 -3 -26 -7 -29 -44 -32 -57 -4
-71 -23 -77 -111 -4 -45 -11 -77 -19 -82 -20 -13 -48 -11 -49 4 -4 41 3 160
12 206 11 53 11 53 43 48 18 -3 39 -1 47 4 18 11 60 11 77 0z m710 -23 c2 -18
-4 -31 -19 -42 -20 -13 -20 -16 -6 -22 11 -4 17 -17 17 -35 0 -44 -31 -58
-133 -60 -105 -3 -120 5 -93 55 15 28 16 37 5 54 -10 16 -10 26 -1 46 10 22
19 25 69 29 32 2 81 3 108 3 46 -1 50 -3 53 -28z m-2928 -17 c0 -23 -5 -41
-12 -44 -10 -3 -10 -7 1 -20 10 -12 12 -42 10 -109 l-4 -93 33 -3 c29 -3 33
-6 30 -30 -2 -18 -11 -28 -28 -33 -39 -11 -178 -10 -185 1 -11 18 14 49 42 52
26 3 28 7 34 63 8 70 4 83 -24 87 -46 6 -27 68 20 68 22 0 24 3 19 24 -9 36
12 76 41 76 20 0 23 -5 23 -39z m1283 -18 c7 -34 -21 -67 -70 -85 -36 -13 -39
-31 -5 -36 12 -2 22 -8 22 -13 0 -5 9 -9 19 -9 36 0 43 -65 9 -81 -18 -8 -44
-2 -127 29 l-103 40 -104 -49 c-113 -54 -117 -55 -132 -36 -19 23 14 71 60 88
23 9 43 20 45 25 2 5 -21 18 -49 29 -60 23 -71 47 -40 85 l20 24 43 -21 c24
-11 67 -29 94 -38 28 -10 55 -22 61 -26 8 -7 155 55 214 91 26 15 38 11 43
-17z m-1574 3 c7 -8 11 -23 9 -33 -2 -14 4 -18 27 -19 55 -2 56 -3 53 -31 -3
-24 -9 -29 -46 -38 l-43 -9 3 -66 3 -65 35 -5 c27 -4 36 -10 38 -27 6 -42 -92
-59 -128 -23 -17 17 -20 33 -20 99 0 79 0 79 -30 90 -34 11 -34 10 -20 45 6
16 17 26 30 26 11 0 20 6 20 13 0 19 29 57 44 57 8 0 19 -6 25 -14z m807 -42
c30 -29 43 -96 25 -118 -7 -8 -41 -17 -81 -21 -39 -4 -70 -11 -70 -15 0 -5 7
-16 17 -25 16 -16 27 -16 95 0 21 6 27 3 33 -16 19 -59 -117 -96 -178 -48 -68
53 -48 211 32 254 43 23 98 19 127 -11z m-209 1 c3 -9 -9 -55 -27 -103 -17
-48 -36 -102 -41 -119 -11 -38 -41 -57 -75 -49 -19 5 -28 22 -54 107 -37 120
-37 163 1 167 24 3 28 -2 49 -68 22 -67 40 -98 40 -67 0 17 39 116 53 135 13
17 46 15 54 -3z m-2597 -156 c0 -131 2 -149 18 -157 9 -5 23 -7 31 -4 22 7 42
-27 30 -49 -15 -28 -99 -27 -125 2 -17 18 -19 38 -20 153 0 106 -3 131 -15
132 -8 1 -20 2 -26 3 -7 0 -13 14 -13 30 0 32 9 36 83 37 l37 1 0 -148z m1838
117 c10 -9 12 -24 8 -40 -6 -25 -9 -26 -54 -20 -40 5 -50 3 -66 -14 -27 -31
-26 -90 3 -113 25 -21 56 -25 66 -9 3 6 15 10 26 10 17 0 20 -6 17 -32 -3 -29
-9 -35 -45 -47 -63 -22 -116 -3 -144 50 -46 90 11 223 99 231 51 5 73 1 90
-16z m-276 -10 c31 -23 39 -63 32 -161 -5 -64 -11 -96 -20 -99 -7 -3 -47 -8
-87 -12 -69 -6 -75 -5 -95 17 -43 45 -24 127 35 158 41 21 43 21 75 21 17 0
19 3 10 12 -9 9 -22 9 -59 0 -30 -8 -50 -9 -56 -3 -15 15 0 57 25 69 32 15
119 14 140 -2z m-755 -28 c7 -6 13 -24 13 -40 0 -28 -1 -29 -51 -26 -31 2 -53
-1 -56 -8 -4 -12 39 -34 67 -34 11 0 20 -5 20 -11 0 -5 4 -8 8 -5 4 2 14 -9
21 -25 11 -26 10 -34 -8 -73 -17 -34 -29 -45 -61 -55 -45 -13 -119 -5 -127 15
-3 8 -2 25 1 38 5 20 11 24 29 19 61 -15 84 -15 90 1 5 12 -1 20 -21 27 -95
38 -92 35 -92 87 0 71 28 94 119 99 19 1 41 -3 48 -9z m-249 -15 c7 -7 12 -23
10 -35 -3 -20 -9 -23 -48 -23 -60 0 -81 -13 -49 -31 13 -7 35 -13 48 -14 13 0
32 -10 42 -22 40 -46 10 -130 -53 -149 -43 -14 -124 -4 -131 16 -12 29 5 55
34 55 15 0 30 -4 34 -10 6 -10 31 -4 53 14 19 14 -12 36 -49 36 -34 0 -69 41
-69 81 0 42 43 87 88 91 61 5 76 4 90 -9z m556 -19 c18 -47 -47 -69 -184 -62
-61 3 -65 4 -68 29 -2 14 3 31 11 37 12 10 196 21 224 14 6 -2 14 -10 17 -18z
m-820 10 c9 -3 16 -12 16 -20 0 -8 5 -14 10 -14 15 0 13 -215 -2 -228 -7 -5
-48 -13 -90 -17 -73 -7 -78 -6 -102 18 -20 20 -24 33 -22 64 5 71 48 108 131
112 14 0 25 6 25 12 0 12 -82 8 -112 -5 -24 -11 -34 29 -14 59 15 22 24 25 80
25 36 0 71 -3 80 -6z m-481 -35 c22 -35 -12 -83 -39 -56 -15 15 -64 6 -84 -15
-20 -22 -25 -54 -14 -95 7 -26 58 -50 77 -36 6 6 22 13 35 16 21 5 23 3 20
-30 -3 -32 -8 -38 -43 -50 -82 -29 -165 29 -165 114 0 83 22 131 75 161 29 17
126 11 138 -9z m-1025 -56 c-3 -40 -20 -53 -102 -84 -22 -8 -26 -13 -16 -17 8
-3 17 -8 20 -11 3 -3 25 -13 50 -21 42 -14 45 -17 45 -50 0 -34 -1 -35 -35
-34 -19 1 -78 17 -130 36 -86 31 -95 37 -98 62 -3 26 21 66 39 66 4 0 41 15
81 34 150 69 150 69 146 19z m2315 -2 c4 -1 7 -15 7 -31 0 -41 -27 -50 -151
-50 -110 0 -125 9 -95 55 14 22 24 25 98 28 71 2 102 2 141 -2z m-3137 -515
c3 -8 -16 -58 -41 -112 -48 -102 -63 -135 -86 -191 -8 -18 -17 -33 -21 -33 -5
0 -8 -8 -8 -17 -1 -34 -34 -65 -66 -61 -39 4 -37 20 27 154 28 60 65 138 81
174 16 36 37 73 45 83 19 20 61 23 69 3z m642 -55 c29 -10 55 -21 59 -25 3 -3
17 -6 30 -6 13 0 23 -4 23 -10 0 -5 8 -10 18 -10 26 0 42 -20 42 -53 0 -26 -8
-32 -106 -78 -123 -59 -157 -65 -162 -31 -5 32 11 48 80 79 l60 27 -53 18
c-30 10 -62 21 -71 24 -32 11 -17 85 17 84 5 -1 34 -9 63 -19z m-892 -46 c10
-39 0 -51 -68 -83 l-63 -30 40 -17 c36 -16 57 -22 78 -24 13 -2 8 -81 -5 -82
-55 -5 -244 55 -261 83 -11 17 10 67 33 79 16 9 149 70 190 87 39 16 49 14 56
-13z m10514 -424 c0 -21 -16 -60 -72 -181 -22 -47 -46 -101 -54 -121 -8 -19
-28 -43 -44 -53 -49 -28 -47 1 5 116 82 178 98 212 113 236 18 27 52 30 52 3z
m-705 -22 c4 -11 4 -67 0 -123 -8 -122 -3 -146 31 -146 31 0 32 -25 2 -57 -27
-29 -61 -29 -89 0 -20 21 -21 29 -15 135 5 104 4 113 -14 125 -22 13 -26 49
-7 65 11 9 38 16 74 21 6 0 15 -8 18 -20z m1049 -42 c95 -38 109 -55 80 -94
-21 -29 -132 -95 -178 -107 -22 -5 -26 -3 -26 14 0 32 17 58 50 75 39 20 38
31 -5 49 -19 8 -35 22 -35 30 0 22 18 66 27 66 5 -1 44 -15 87 -33z m-544 -18
c0 -27 -35 -76 -60 -84 -30 -10 -24 -31 13 -41 42 -13 50 -55 14 -78 -22 -15
-28 -15 -78 3 -96 33 -109 42 -109 71 0 14 6 34 13 44 11 15 177 103 200 105
4 1 7 -8 7 -20z m-248 -13 c4 -6 8 -14 8 -18 0 -9 -26 -35 -42 -41 -9 -4 -7
-11 8 -24 43 -38 47 -59 21 -111 -13 -26 -34 -53 -48 -59 -36 -19 -108 -17
-116 3 -10 27 10 68 37 75 14 4 20 7 13 8 -46 4 -60 101 -20 146 34 41 118 53
139 21z m-10902 -25 c0 -11 -9 -36 -19 -58 -11 -21 -34 -69 -52 -108 -77 -172
-111 -235 -129 -245 -24 -13 -57 -13 -65 0 -9 15 160 383 189 413 25 24 76 23
76 -2z m10464 -4 c23 -19 29 -31 30 -66 1 -52 -29 -80 -86 -81 -42 0 -55 -12
-33 -30 14 -12 31 -11 83 5 19 6 22 4 22 -18 0 -39 -52 -77 -104 -77 -80 0
-117 54 -97 143 15 69 41 110 82 130 46 22 69 21 103 -6z m-1304 -7 c23 -42
-18 -83 -72 -73 -37 7 -58 -28 -58 -98 0 -41 5 -63 19 -80 19 -24 19 -24 57
-6 27 13 39 15 44 6 5 -7 12 2 19 23 6 19 23 46 37 59 24 23 24 23 4 31 -27
10 -25 34 5 63 19 20 34 25 75 25 76 0 90 -19 90 -122 0 -46 -3 -93 -6 -106
-8 -29 -45 -48 -110 -57 -46 -6 -54 -4 -82 20 -18 15 -32 22 -32 17 0 -18 -66
-52 -100 -52 -44 0 -84 31 -99 78 l-14 40 -100 -49 c-108 -53 -125 -57 -133
-34 -9 23 22 63 68 86 l43 22 -54 23 c-50 22 -53 26 -46 51 3 16 11 34 17 40
12 15 38 17 38 5 0 -5 6 -9 13 -9 6 -1 42 -13 80 -27 79 -30 87 -31 87 -10 0
29 50 108 83 132 42 30 112 31 127 2z m1088 -17 c2 -13 -7 -31 -25 -47 -22
-20 -24 -26 -11 -26 28 0 51 -45 45 -87 -11 -66 -81 -112 -153 -99 -27 6 -34
12 -34 29 0 13 7 33 16 45 13 19 22 22 52 17 l37 -5 -30 11 c-48 18 -65 39
-65 78 0 70 45 112 115 108 43 -2 50 -5 53 -24z m-200 -28 c2 -22 1 -77 -3
-122 -8 -96 -19 -109 -108 -119 -63 -7 -87 9 -87 59 0 47 -16 66 -24 30 -19
-73 -100 -126 -158 -104 -77 29 -67 209 15 266 12 8 39 15 60 15 45 0 87 -36
87 -75 0 -29 15 -35 17 -6 3 41 32 93 50 89 15 -3 19 -17 23 -95 3 -50 8 -95
12 -99 17 -16 36 21 43 84 8 79 29 125 53 120 12 -2 18 -15 20 -43z m-9438 27
c0 -4 28 -16 63 -25 34 -10 71 -22 82 -27 11 -5 30 -12 43 -15 18 -5 22 -13
22 -45 0 -45 -1 -45 -149 -112 -72 -33 -141 -49 -141 -33 0 2 8 20 17 40 13
27 30 41 72 61 l56 25 -30 13 c-17 8 -45 19 -62 26 -27 10 -33 18 -33 40 0 16
7 36 16 44 16 17 44 22 44 8z m7970 -62 c0 -78 -10 -90 -74 -90 -25 0 -39 -6
-50 -22 -15 -21 -15 -23 4 -30 28 -10 25 -34 -6 -55 -15 -9 -33 -32 -40 -50
-22 -52 -84 -71 -71 -21 5 16 2 15 -18 -6 -36 -39 -55 -34 -55 13 0 22 -4 43
-10 46 -19 12 -10 45 15 57 29 13 33 43 8 57 -14 7 -15 13 -6 34 7 14 21 28
32 32 11 3 29 21 40 40 26 45 49 46 53 3 l3 -33 22 38 c29 48 53 49 53 2 0
-46 26 -47 35 -2 9 40 22 57 46 57 17 0 19 -8 19 -70z m1043 29 c3 -11 3 -27
1 -34 -6 -15 -48 -35 -74 -35 -25 0 -36 -22 -45 -94 -4 -33 -9 -65 -12 -72 -6
-16 -54 -28 -62 -15 -9 14 6 188 20 229 10 29 14 32 45 30 18 -1 36 1 40 5 4
4 24 7 45 7 29 0 38 -4 42 -21z m-9878 -36 c6 -24 1 -33 -30 -60 -20 -17 -50
-35 -66 -38 -37 -8 -25 -29 24 -40 17 -4 35 -9 40 -10 4 -1 12 -3 17 -4 6 0
10 -19 10 -40 0 -61 -31 -65 -161 -25 -101 32 -129 49 -129 78 0 38 27 62 107
97 43 18 94 41 113 51 50 25 67 22 75 -9z m8043 5 c-2 -14 -15 -29 -35 -38
-41 -19 -42 -30 -3 -30 25 0 30 -4 30 -26 0 -19 -8 -28 -35 -40 -19 -8 -36
-21 -36 -29 -1 -8 -3 -19 -4 -25 -1 -5 -3 -37 -4 -70 -1 -55 -3 -62 -27 -72
-36 -17 -42 -1 -37 96 5 80 5 82 -21 94 -14 6 -26 16 -26 22 0 13 37 50 49 50
5 0 13 10 16 23 11 36 55 67 98 67 34 0 38 -3 35 -22z m-838 -79 c0 -46 2 -50
20 -44 88 28 104 10 108 -122 4 -113 -3 -133 -45 -133 -23 0 -24 3 -23 58 3
104 1 120 -17 126 -29 11 -42 -16 -49 -102 -6 -76 -9 -83 -31 -88 -13 -4 -26
-4 -29 -1 -4 3 -5 61 -5 129 2 177 13 228 51 228 17 0 20 -7 20 -51z m597 -50
c34 -65 2 -109 -80 -109 -52 0 -70 -18 -46 -46 9 -11 23 -14 48 -10 68 12 75
11 79 -5 7 -39 -80 -77 -140 -61 -49 12 -73 53 -71 117 3 90 50 149 123 157
41 5 70 -10 87 -43z m493 21 c0 -39 -37 -55 -150 -65 -82 -7 -108 7 -89 47 12
28 38 34 164 41 63 3 75 -1 75 -23z m-711 1 c9 -6 11 -18 7 -35 -5 -22 -12
-26 -45 -26 -56 0 -73 -24 -79 -112 -5 -76 -11 -88 -50 -88 -22 0 -22 1 -16
103 3 56 10 115 16 130 10 25 15 28 39 23 16 -3 31 -1 34 4 8 12 75 13 94 1z
m-941 -83 c-3 -27 -12 -36 -63 -64 l-60 -33 33 -7 c18 -4 35 -11 38 -15 3 -5
13 -9 24 -9 22 0 36 -46 19 -66 -17 -20 -41 -18 -137 16 -101 36 -115 45 -106
74 7 22 38 56 51 56 5 0 44 18 88 39 101 50 117 52 113 9z m-1725 13 c9 -1 -2
-342 -12 -353 -3 -3 -23 -9 -45 -12 -21 -4 -43 -9 -48 -12 -5 -3 -25 -3 -44 1
-63 11 -91 97 -64 196 9 31 59 92 74 90 3 -1 22 -1 41 -1 32 0 35 2 35 31 0
41 16 68 37 64 10 -2 22 -4 26 -4z m3350 -7 c24 -8 22 -51 -4 -65 -24 -12
-173 -28 -201 -21 -45 11 -5 79 50 84 80 7 138 7 155 2z m-3669 -154 c-7 -148
-6 -152 45 -154 19 -1 27 -7 29 -25 5 -30 -12 -41 -64 -41 -69 0 -79 21 -77
154 2 122 -2 150 -22 142 -19 -7 -38 19 -30 43 5 16 16 21 53 23 77 5 74 12
66 -142z m1399 126 c18 -8 59 -24 92 -35 47 -15 62 -25 70 -46 8 -24 6 -30
-20 -51 -40 -31 -204 -104 -221 -97 -38 14 -2 74 55 93 45 14 75 40 48 40 -8
0 -36 9 -61 20 -36 15 -46 24 -46 43 0 45 30 57 83 33z m-1631 -18 c6 -38 -2
-58 -25 -59 -21 0 -21 -1 -2 -8 18 -7 21 -20 25 -112 l5 -104 33 -3 c24 -2 32
-8 32 -22 0 -10 -5 -22 -12 -26 -15 -9 -179 -23 -196 -16 -23 8 -9 47 18 50
42 6 50 20 50 87 0 61 -1 63 -30 74 -47 16 -37 57 15 63 25 2 29 7 27 27 -6
43 6 71 32 71 17 0 25 -7 28 -22z m1269 -10 c16 -18 19 -38 19 -130 0 -104 -1
-109 -22 -117 -41 -15 -47 -4 -50 92 -3 80 -5 92 -22 95 -31 6 -41 -16 -46
-106 l-5 -87 -32 -3 -33 -3 0 108 c0 133 10 158 62 158 20 1 40 4 44 8 16 15
67 6 85 -15z m-1611 -36 l0 -49 54 5 c78 6 88 -11 84 -154 l-3 -109 -30 0 -30
0 -5 95 c-4 84 -7 95 -24 98 -29 6 -46 -25 -46 -82 0 -28 -3 -68 -6 -88 -6
-34 -10 -38 -35 -38 l-29 0 0 159 c0 179 7 211 45 211 23 0 25 -3 25 -48z
m1365 21 c34 -34 46 -101 21 -122 -7 -6 -43 -14 -80 -18 -49 -4 -66 -10 -66
-21 0 -30 69 -58 84 -33 3 5 17 11 30 13 31 6 41 -23 18 -53 -20 -23 -83 -40
-124 -32 -94 19 -117 162 -38 244 33 35 42 39 88 39 34 0 56 -5 67 -17z m-210
-33 c0 -34 -1 -35 -43 -36 -62 -1 -74 -18 -81 -116 l-6 -83 -34 -3 -33 -3 5
118 c7 147 10 157 51 150 17 -2 40 -1 51 4 11 4 36 7 55 6 33 -2 35 -4 35 -37z
m-2435 -70 c0 -50 0 -50 27 -44 44 11 77 11 88 0 29 -31 36 -71 29 -168 -6
-87 -9 -98 -25 -98 -11 0 -22 -1 -26 -2 -5 -2 -10 39 -13 91 -4 75 -9 96 -22
105 -13 8 -23 8 -35 0 -15 -9 -19 -28 -21 -103 -3 -88 -4 -92 -28 -101 -14 -6
-30 -8 -35 -4 -12 7 -12 316 1 348 7 19 17 26 35 26 23 0 25 -3 25 -50z m1151
25 c14 -5 19 -16 19 -42 l0 -35 -47 7 c-40 5 -52 3 -70 -15 -36 -33 -29 -108
11 -130 19 -10 29 -9 56 5 38 20 56 9 47 -28 -12 -44 -86 -60 -151 -33 -43 18
-60 59 -54 137 4 56 8 65 44 98 31 29 48 37 82 39 24 2 52 0 63 -3z m-533 -31
c18 -4 22 -11 22 -40 l0 -37 -39 7 c-40 6 -71 0 -71 -14 0 -8 39 -25 80 -34
36 -8 53 -50 38 -98 -16 -53 -74 -82 -148 -72 -50 7 -51 7 -48 38 3 31 3 31
57 28 36 -2 57 1 62 10 15 23 10 28 -32 34 -61 10 -83 32 -81 85 2 50 32 85
78 91 16 2 36 4 44 5 8 1 25 0 38 -3z m-255 -25 c35 -19 37 -27 37 -146 0
-126 10 -112 -85 -129 -100 -19 -135 1 -135 79 0 42 4 53 31 78 18 17 43 30
60 30 45 2 49 3 49 14 -1 11 -40 11 -88 0 -33 -8 -33 -8 -30 26 2 24 10 37 28
46 31 16 104 17 133 2z m-1863 -159 l5 -155 30 0 c28 1 55 -15 55 -31 0 -24
-36 -44 -81 -44 -72 0 -81 19 -83 175 -1 75 -5 125 -11 126 -46 5 -64 64 -22
74 25 5 77 11 92 11 6 -1 12 -63 15 -156z m838 93 c7 -7 12 -23 10 -35 -3 -20
-9 -23 -56 -24 -28 0 -55 -3 -58 -7 -9 -9 18 -32 39 -33 9 -1 24 -2 32 -3 24
-2 55 -39 55 -66 0 -68 -55 -115 -134 -115 -62 0 -76 7 -76 41 0 35 22 47 60
32 31 -12 70 0 70 21 0 10 -15 17 -45 22 -59 8 -89 44 -81 93 6 39 39 79 70
83 48 7 102 3 114 -9z m1596 2 c8 -23 -4 -45 -28 -49 -11 -3 -62 -7 -113 -10
-101 -5 -124 4 -104 43 12 21 38 26 172 29 51 2 68 -1 73 -13z m-1859 -45 l0
-35 -49 0 c-30 0 -51 -5 -53 -12 -4 -11 13 -18 62 -25 23 -3 45 -22 45 -37 0
-6 5 -11 10 -11 6 0 10 -13 10 -30 0 -16 -4 -30 -10 -30 -5 0 -10 -8 -10 -18
0 -11 -17 -28 -41 -41 -34 -19 -50 -22 -92 -18 -62 8 -72 17 -60 54 10 29 16
30 79 18 21 -4 35 -1 44 10 16 20 11 25 -36 32 -84 12 -113 91 -57 152 25 26
32 29 92 27 l66 -1 0 -35z m575 11 c0 -41 -17 -48 -144 -57 -109 -7 -126 -3
-126 31 0 38 30 45 208 53 l62 3 0 -30z m-870 6 c0 -4 5 -5 10 -2 6 3 10 1 10
-6 0 -7 3 -9 7 -6 28 29 49 -209 21 -245 -7 -9 -31 -19 -53 -22 -22 -2 -54 -8
-71 -11 -44 -10 -90 16 -99 55 -9 40 1 83 25 106 29 29 54 49 57 47 9 -9 63
-1 63 8 0 11 -33 9 -104 -7 -29 -7 -29 -6 -22 27 3 18 11 38 16 43 17 17 140
29 140 13z m-493 -33 c28 -18 30 -59 4 -73 -10 -6 -21 -8 -24 -5 -3 3 -19 8
-36 10 -24 4 -36 -1 -56 -22 -25 -27 -35 -84 -15 -84 6 0 10 -6 10 -13 0 -8
11 -19 23 -24 19 -9 33 -7 65 7 l42 19 0 -32 c0 -41 -9 -53 -43 -66 -66 -25
-134 -4 -161 50 -20 39 -21 109 -2 152 18 42 67 85 103 89 15 2 37 4 48 5 11
1 30 -5 42 -13z m-1039 -77 c4 -35 -19 -63 -75 -89 -24 -11 -41 -23 -39 -27 3
-4 28 -13 56 -21 52 -14 70 -39 56 -75 -13 -36 -54 -37 -156 -5 -54 16 -108
38 -120 48 -21 17 -21 20 -7 53 12 29 27 42 78 65 35 16 88 41 119 56 67 33
84 31 88 -5z m2394 8 c10 -51 -8 -58 -138 -59 -113 -1 -119 0 -122 20 -5 32
27 52 88 56 180 10 167 11 172 -17z m9955 -277 l-2 -133 27 -3 c22 -3 28 2 37
31 7 19 21 43 31 52 24 22 26 35 5 35 -32 0 -14 55 26 75 40 21 81 19 108 -6
21 -20 23 -28 19 -111 -3 -83 -5 -92 -30 -113 -34 -29 -109 -41 -146 -22 -25
12 -32 12 -60 -3 -17 -9 -56 -18 -86 -19 -51 -1 -56 0 -56 20 0 11 14 33 30
47 26 23 30 33 30 79 0 40 -4 53 -15 53 -21 0 -19 32 4 61 10 13 26 39 35 57
9 17 23 32 30 32 12 0 14 -25 13 -132z m-563 73 c3 -5 -13 -71 -35 -148 -33
-108 -48 -144 -70 -165 -16 -16 -36 -28 -44 -28 -8 0 -17 12 -20 28 -3 15 -10
43 -15 62 -4 19 -11 58 -15 85 -3 28 -10 57 -14 64 -12 19 8 89 27 96 24 9 37
-15 51 -95 7 -38 17 -70 22 -70 4 0 13 19 19 43 26 104 71 165 94 128z m-729
-167 c0 -71 4 -135 8 -142 5 -7 17 -10 28 -7 14 5 19 2 19 -13 0 -25 -19 -40
-56 -48 -48 -9 -59 20 -55 159 2 111 1 119 -18 124 -45 12 17 69 64 58 6 -1
10 -53 10 -131z m1143 113 c5 -24 -23 -54 -58 -62 -32 -7 -46 -35 -53 -108 -5
-48 -25 -76 -56 -77 -11 0 -12 18 -6 98 9 121 25 167 58 159 12 -4 29 -2 37 4
24 15 74 7 78 -14z m-250 -13 c20 -14 22 -23 22 -108 0 -86 -2 -95 -25 -118
-22 -23 -69 -38 -117 -38 -10 0 -27 10 -38 23 -27 28 -22 73 15 128 20 30 22
39 10 39 -9 0 -15 9 -15 25 0 51 99 84 148 49z m-1598 -70 c0 -41 2 -45 20
-40 11 3 28 8 38 11 11 3 26 -3 38 -16 16 -18 19 -34 16 -112 -3 -93 -16 -127
-50 -127 -12 0 -14 12 -10 68 6 75 -3 112 -27 112 -21 0 -35 -40 -35 -98 0
-27 -7 -57 -16 -70 -15 -22 -39 -29 -47 -14 -8 13 11 277 22 305 7 17 18 27
31 27 17 0 20 -6 20 -46z m257 16 c4 -25 10 -30 34 -30 15 0 31 -5 34 -11 8
-12 -23 -49 -41 -49 -22 0 -35 -38 -32 -87 3 -43 5 -47 36 -55 38 -10 40 -21
10 -42 -27 -19 -79 -21 -96 -4 -7 7 -12 43 -12 89 0 69 -2 78 -20 84 -29 9
-24 40 10 65 17 12 30 27 30 34 0 14 20 36 32 36 5 0 11 -13 15 -30z m936 -32
c35 -13 34 -29 -2 -71 -29 -33 -186 -115 -198 -104 -15 15 12 61 52 89 l45 32
-42 16 c-48 17 -58 39 -34 75 l16 24 67 -25 c38 -13 80 -30 96 -36z m-636 -8
c19 -35 7 -190 -15 -207 -37 -30 -45 -17 -39 65 4 48 3 68 -2 52 -5 -14 -9
-44 -10 -67 -1 -33 -6 -46 -26 -59 -13 -8 -28 -13 -33 -10 -5 3 -7 31 -5 63 2
41 0 53 -7 43 -5 -8 -10 -32 -10 -52 0 -31 -5 -40 -29 -52 -16 -9 -30 -13 -32
-11 -2 2 -1 48 2 104 8 132 18 148 94 149 31 0 59 3 63 6 12 13 37 1 49 -24z
m-1320 -116 c2 -160 -6 -197 -48 -215 -45 -18 -127 -18 -139 1 -8 12 -15 11
-48 -8 -30 -16 -56 -22 -105 -22 -36 0 -68 4 -72 10 -6 10 18 37 49 55 11 7
19 28 23 65 5 53 4 56 -21 68 -14 6 -26 16 -26 22 0 12 36 50 48 50 5 0 12 19
18 42 11 49 40 61 50 21 5 -20 1 -30 -17 -44 -20 -15 -21 -19 -6 -19 20 0 20
0 17 -112 l-2 -88 35 0 c20 0 38 -6 41 -12 3 -7 3 1 -1 17 -3 17 -6 32 -6 35
-1 3 2 28 6 56 8 59 47 103 104 119 28 8 38 17 44 38 4 16 13 35 20 43 27 32
34 7 36 -122z m-515 -37 c-4 -134 2 -157 39 -157 29 0 34 -22 9 -42 -34 -28
-75 -23 -99 11 -19 26 -20 38 -15 134 7 100 6 105 -15 116 -25 14 -28 46 -3
60 9 6 33 10 52 8 l35 -2 -3 -128z m974 98 c9 -22 -13 -43 -58 -55 -45 -13
-58 -37 -58 -107 0 -47 -20 -83 -47 -83 -15 0 -15 3 -13 114 2 95 20 141 53
132 12 -3 29 -1 37 4 24 15 80 12 86 -5z m-258 -22 c19 -17 26 -42 23 -85 -1
-23 -51 -48 -96 -48 -28 0 -35 -4 -35 -20 0 -32 34 -43 76 -25 42 18 49 15 41
-17 -12 -46 -99 -74 -148 -48 -46 25 -63 113 -33 176 36 76 123 109 172 67z
m-1458 -48 c0 -44 0 -44 30 -39 79 16 101 -18 94 -148 -4 -86 -18 -113 -54
-106 -12 3 -14 18 -12 84 4 89 -8 116 -42 91 -14 -10 -20 -33 -25 -92 -6 -75
-8 -80 -33 -89 -15 -5 -29 -8 -32 -5 -2 2 -1 74 3 160 6 162 14 189 52 189 16
0 19 -8 19 -45z m-6655 22 c59 -16 163 -54 173 -64 6 -6 12 -25 12 -42 0 -32
-15 -41 -192 -120 -58 -26 -65 -26 -73 -1 -10 31 18 65 69 86 25 11 46 25 46
32 0 6 -3 11 -7 10 -5 -1 -27 4 -50 11 -51 14 -67 38 -53 76 10 27 15 28 75
12z m6323 -37 c2 -19 1 -94 -3 -166 -7 -130 -7 -132 -33 -144 -15 -6 -49 -14
-77 -17 -69 -7 -96 15 -102 84 -9 92 40 183 98 183 30 0 59 23 59 46 0 27 21
55 38 52 11 -2 18 -15 20 -38z m-6928 -15 c0 -36 -24 -61 -85 -89 -40 -18 -40
-19 -15 -28 14 -6 33 -14 42 -19 10 -5 24 -9 32 -9 34 0 30 -74 -4 -85 -26 -8
-205 43 -237 68 -33 24 -1 90 50 102 15 4 27 11 27 17 0 5 3 7 8 5 4 -3 40 12
81 32 91 46 101 47 101 6z m6646 20 c11 -29 -5 -65 -29 -65 -21 0 -21 -1 3
-13 25 -13 25 -15 21 -111 l-3 -98 36 4 c33 4 37 2 34 -16 -4 -30 -43 -44
-128 -48 -69 -3 -75 -1 -75 17 0 16 23 35 58 48 4 1 10 25 13 54 5 53 -10 83
-42 83 -33 0 -5 52 35 65 12 3 18 16 19 36 1 49 44 82 58 44z m426 -12 c3 -25
7 -28 38 -28 28 -1 36 -5 38 -23 3 -16 -6 -25 -35 -39 -38 -18 -38 -18 -38
-78 l0 -60 33 -3 c24 -2 32 -8 32 -22 0 -42 -100 -61 -127 -24 -8 11 -13 49
-13 96 0 72 -2 78 -20 78 -35 0 -36 30 -3 59 17 14 36 36 42 49 17 32 49 29
53 -5z m739 17 c40 -22 13 -61 -43 -63 -48 -3 -44 -30 6 -38 44 -7 56 -21 56
-66 0 -22 -10 -43 -29 -65 -27 -30 -34 -33 -92 -33 -71 0 -84 14 -51 55 15 19
22 21 39 12 25 -14 63 -5 56 14 -3 7 -21 16 -40 20 -89 17 -79 136 13 164 40
12 62 12 85 0z m-2122 -201 c-1 -151 1 -159 49 -159 32 0 30 -38 -4 -50 -43
-17 -81 -12 -98 12 -12 17 -16 50 -16 140 0 117 0 119 -25 128 -47 18 -26 55
35 63 19 2 41 5 48 5 10 2 12 -30 11 -139z m-301 66 l3 -40 43 3 c35 3 48 -1
64 -18 23 -25 36 -97 26 -143 -18 -87 -59 -118 -151 -114 l-58 2 1 156 c2 169
10 202 47 197 18 -2 23 -11 25 -43z m1082 -89 c-37 -139 -34 -132 -65 -138
-19 -4 -30 0 -38 13 -11 18 -12 18 -33 -2 -13 -12 -32 -19 -45 -17 -19 2 -25
12 -34 53 -9 45 -13 50 -35 48 -14 -2 -74 -5 -135 -9 -175 -9 -229 -17 -233
-35 -1 -8 8 -21 21 -28 20 -11 32 -10 68 2 42 15 44 14 47 -5 2 -12 -6 -30
-17 -42 -18 -17 -34 -21 -88 -21 -65 0 -68 1 -91 35 -20 30 -23 42 -17 90 7
55 38 110 73 129 9 5 36 11 59 14 38 6 44 3 67 -24 14 -17 26 -38 26 -48 0
-26 10 -32 27 -16 9 9 34 15 62 15 27 0 68 3 93 6 43 6 45 8 54 48 8 35 13 41
34 41 22 0 26 -5 34 -55 l8 -54 20 27 c24 33 54 35 64 5 6 -19 9 -15 25 28 22
58 47 81 65 62 10 -10 7 -35 -16 -122z m-1216 18 c9 -8 19 -27 22 -41 8 -31
-3 -184 -13 -194 -8 -8 -38 -15 -110 -25 -59 -9 -93 14 -93 62 0 69 51 124
115 124 14 0 25 5 25 11 0 8 -18 10 -60 5 -55 -6 -60 -5 -60 13 0 11 12 29 26
40 33 26 124 29 148 5z m5572 -119 c-2 -138 2 -151 37 -133 13 6 17 21 17 58
0 65 26 129 54 135 11 2 49 7 83 10 55 5 63 4 72 -14 6 -11 11 -30 11 -42 0
-19 5 -16 29 19 36 49 41 52 87 54 29 1 42 -4 59 -26 30 -37 32 -105 5 -162
-38 -78 -88 -101 -151 -69 -27 14 -33 14 -65 -1 -28 -14 -38 -14 -44 -5 -6 10
-12 10 -29 1 -12 -6 -30 -8 -41 -5 -11 3 -30 -1 -44 -11 -14 -9 -33 -13 -42
-10 -9 4 -22 2 -28 -2 -6 -5 -36 -12 -67 -16 -47 -5 -58 -3 -63 10 -9 23 2 54
19 54 37 0 50 111 15 130 -26 14 -25 32 4 67 13 15 31 43 40 61 9 17 23 32 31
32 11 0 13 -24 11 -135z m-5841 10 l0 -100 32 -3 c17 -2 34 -9 37 -17 10 -26
-25 -39 -120 -43 -76 -4 -94 -2 -94 10 0 19 20 38 42 38 25 0 38 31 38 94 0
53 -1 56 -25 56 -33 0 -42 25 -19 51 14 15 28 19 63 17 l46 -3 0 -100z m-1414
83 c4 -41 -10 -58 -48 -58 -14 0 -23 -6 -23 -16 0 -12 8 -15 35 -11 33 5 35 3
35 -24 0 -23 -5 -30 -27 -35 -50 -11 -53 -13 -53 -46 -1 -59 -10 -149 -15
-159 -4 -5 -17 -9 -31 -9 l-25 0 2 98 2 97 -27 3 c-20 3 -26 9 -26 29 0 18 8
28 30 36 17 6 30 19 30 28 0 24 37 67 63 72 46 9 77 7 78 -5z m1245 -12 c9
-35 -2 -46 -45 -46 -57 0 -75 -26 -79 -116 -4 -62 -8 -76 -24 -85 -11 -6 -26
-8 -35 -5 -13 5 -14 23 -10 116 7 128 17 154 55 147 15 -3 36 -1 47 3 11 5 35
9 52 9 27 1 34 -4 39 -23z m6672 -6 c8 -17 11 -51 9 -104 -4 -73 -7 -82 -33
-105 l-29 -24 -3 86 c-2 78 -5 87 -22 87 -20 0 -24 -9 -35 -90 -5 -41 -36 -90
-57 -90 -15 0 -8 153 10 205 15 45 21 51 52 56 63 12 93 6 108 -21z m-901 -10
c4 -25 10 -30 34 -30 44 0 43 -16 0 -59 -34 -34 -41 -47 -41 -80 0 -41 13 -57
41 -53 32 5 29 -27 -5 -53 -40 -30 -60 -31 -86 -5 -16 16 -20 33 -20 90 0 60
-3 71 -21 80 -11 6 -19 18 -17 25 4 17 90 115 101 115 4 0 10 -13 14 -30z
m-6073 9 c31 -15 36 -33 36 -151 0 -93 -1 -98 -22 -102 -13 -3 -46 -10 -73
-16 -87 -19 -130 12 -120 87 6 48 54 93 102 93 17 0 34 4 37 9 10 16 -25 22
-65 11 -41 -11 -59 -7 -59 14 0 27 29 50 71 56 65 11 66 11 93 -1z m-192 -36
c-2 -13 -21 -69 -42 -125 -39 -105 -66 -137 -104 -122 -9 3 -31 52 -53 119
-31 95 -35 116 -24 129 28 33 70 9 72 -41 0 -10 8 -36 18 -57 l17 -39 28 76
c28 78 36 87 71 84 15 -1 19 -8 17 -24z m6102 -26 c23 -17 12 -43 -27 -64
l-31 -15 31 -13 c55 -23 55 -85 0 -143 -26 -27 -38 -32 -79 -32 -57 0 -67 14
-44 59 14 26 20 30 46 24 19 -3 30 -1 30 6 0 6 -10 11 -22 11 -91 1 -77 142
16 169 44 13 60 13 80 -2z m-6584 -41 c0 -38 -23 -47 -131 -55 -110 -7 -132 0
-122 39 7 27 37 33 201 38 49 2 52 0 52 -22z m-16 -82 c45 -45 -16 -72 -166
-73 -70 -1 -83 6 -73 39 7 23 23 28 130 39 44 5 83 9 87 10 4 0 14 -6 22 -15z"/>
<path d="M6353 8825 c-20 -22 -16 -79 7 -100 18 -16 24 -17 59 -5 21 7 48 9
61 5 19 -6 22 -4 17 10 -4 9 -7 37 -7 61 l0 44 -62 0 c-42 -1 -67 -6 -75 -15z"/>
</g>
</svg>
